<svg width="23" height="23" viewBox="0 0 23 23" fill="none" xmlns="http://www.w3.org/2000/svg">
<path d="M19.6982 3.60352H18.0331L20.9533 5.8169C21.0154 5.70814 21.0149 5.57464 20.952 5.46637L20.9953 5.44129L20.9953 5.44128L20.0455 3.80359C19.9736 3.67972 19.8413 3.60352 19.6982 3.60352ZM12.2088 4.15908C12.4855 4.15908 12.7386 4.05667 12.9325 3.88812L17.1549 2.17632C17.0922 2.06724 16.976 2 16.8502 2H14.951C14.8254 2 14.7093 2.067 14.6465 2.17579L14.6032 2.15079L14.6032 2.1508L13.8467 3.46134L13.3064 3.17748C13.3109 3.13717 13.3134 3.09616 13.3134 3.05454C13.3134 2.44545 12.8179 1.95 12.2088 1.95C11.5997 1.95 11.1043 2.44545 11.1043 3.05454C11.1043 3.66362 11.5997 4.15908 12.2088 4.15908ZM12.2088 3.35605C12.0426 3.35605 11.9073 3.22075 11.9073 3.05454C11.9073 2.88833 12.0426 2.75303 12.2088 2.75303C12.375 2.75303 12.5103 2.88833 12.5103 3.05454C12.5103 3.22075 12.375 3.35605 12.2088 3.35605ZM14.4659 3.99499L15.1828 2.75303H16.6179L17.3355 4.00125L16.6204 5.21907H15.1814L14.4659 3.99499ZM16.1255 9.38177C16.1255 9.21556 16.2608 9.08025 16.427 9.08025C16.5932 9.08025 16.7285 9.21556 16.7285 9.38177C16.7285 9.54822 16.5934 9.68328 16.427 9.68328C16.2608 9.68328 16.1255 9.54798 16.1255 9.38177ZM18.8376 11.4908C18.8376 11.6571 18.7023 11.7924 18.5361 11.7924C18.3699 11.7924 18.2346 11.6571 18.2346 11.4908C18.2346 11.3244 18.3696 11.1893 18.5361 11.1893C18.7023 11.1893 18.8376 11.3246 18.8376 11.4908ZM20.1848 5.64436L19.4649 6.90633H18.0336L17.3126 5.62604L18.0288 4.40514H19.4668L20.1848 5.64436Z" fill="white" stroke="white" stroke-width="0.1"/>
<path d="M8.78511 21.0475C9.00686 21.0475 9.18662 20.8677 9.18662 20.6459C9.18662 20.4242 9.00686 20.2444 8.78511 20.2444C8.56336 20.2444 8.38359 20.4242 8.38359 20.6459C8.38359 20.8677 8.56336 21.0475 8.78511 21.0475Z" fill="white" stroke="white" stroke-width="0.1"/>
<path d="M2.83103 19.282L4.96715 15.2128H12.6012L14.7373 19.282L14.7376 19.2825C14.7892 19.3782 14.8153 19.4821 14.8153 19.5918C14.8153 19.9519 14.5223 20.2449 14.1623 20.2449H10.366H3.40605C3.04602 20.2449 2.75303 19.9519 2.75303 19.5918C2.75303 19.4822 2.77915 19.3782 2.83077 19.2825L2.83103 19.282ZM15.6184 19.5918C15.6184 19.3521 15.5587 19.1142 15.4456 18.9037C15.4456 18.9036 15.4455 18.9035 15.4455 18.9034L11.4002 11.1972V8.18251H11.7018C11.9235 8.18251 12.1033 8.00272 12.1033 7.781V6.37495C12.1033 6.15323 11.9235 5.97344 11.7018 5.97344H5.86664C5.64488 5.97344 5.46513 6.15323 5.46513 6.37495V7.781C5.46513 8.00272 5.64488 8.18251 5.86664 8.18251H6.16815V11.1972L2.12289 18.9034C2.12285 18.9035 2.12281 18.9036 2.12277 18.9036C2.00971 19.1142 1.95 19.3521 1.95 19.5918C1.95 20.3947 2.60314 21.0479 3.40605 21.0479H10.366H14.1623C14.9653 21.0479 15.6184 20.3947 15.6184 19.5918ZM5.38869 14.4097L6.92517 11.4827L6.92518 11.4827C6.95535 11.4252 6.97118 11.3612 6.97118 11.2961V8.18251H10.5972V11.2961C10.5972 11.3611 10.613 11.4252 10.6432 11.4827C10.6432 11.4827 10.6432 11.4827 10.6432 11.4827L12.1797 14.4097H5.38869ZM6.26815 6.77646H11.3002V7.37949H6.26815V6.77646Z" fill="white" stroke="white" stroke-width="0.1"/>
</svg>
