<svg width="25" height="24" viewBox="0 0 25 24" fill="none" xmlns="http://www.w3.org/2000/svg">
<rect opacity="0.01" width="25" height="24" fill="#D8D8D8"/>
<path fill-rule="evenodd" clip-rule="evenodd" d="M20.3122 15C21.7504 15 22.9163 13.8807 22.9163 12.5C22.9163 11.1193 21.7504 10 20.3122 10C18.8739 10 17.708 11.1193 17.708 12.5C17.708 13.8807 18.8739 15 20.3122 15Z" fill="#CCD2E0"/>
<path fill-rule="evenodd" clip-rule="evenodd" d="M11.9792 15C13.4174 15 14.5833 13.8807 14.5833 12.5C14.5833 11.1193 13.4174 10 11.9792 10C10.5409 10 9.375 11.1193 9.375 12.5C9.375 13.8807 10.5409 15 11.9792 15Z" fill="#CCD2E0"/>
<path fill-rule="evenodd" clip-rule="evenodd" d="M3.64567 15C5.08391 15 6.24984 13.8807 6.24984 12.5C6.24984 11.1193 5.08391 10 3.64567 10C2.20743 10 1.0415 11.1193 1.0415 12.5C1.0415 13.8807 2.20743 15 3.64567 15Z" fill="#CCD2E0"/>
</svg>
