<svg width="12" height="22" viewBox="0 0 12 22" fill="none" xmlns="http://www.w3.org/2000/svg">
<path d="M9.71539 0H2.32423C1.06767 0 0 1.02457 0 2.28079V19.6002C0 20.8564 1.04508 21.8784 2.30164 21.8784L9.70496 21.8704C10.9614 21.8704 11.9892 20.8483 11.9892 19.5919L12 2.27957C11.9998 1.01884 10.977 0 9.71539 0ZM4.95205 1.36743H7.09643C7.2848 1.36743 7.43824 1.52035 7.43824 1.70925C7.43824 1.89814 7.2848 2.05106 7.09643 2.05106H4.95205C4.76316 2.05106 4.61024 1.89814 4.61024 1.70925C4.61024 1.52035 4.76316 1.36743 4.95205 1.36743ZM3.66352 1.47621C3.7902 1.34971 4.0208 1.34797 4.1473 1.47621C4.21073 1.53947 4.24827 1.62827 4.24827 1.71898C4.24827 1.80795 4.21073 1.89658 4.1473 1.96C4.08422 2.02343 3.99508 2.06079 3.90628 2.06079C3.81574 2.06079 3.72868 2.02343 3.66352 1.96C3.60044 1.89675 3.56446 1.80795 3.56446 1.71898C3.56429 1.62827 3.60044 1.53947 3.66352 1.47621ZM5.95525 21.2008C5.39118 21.2008 4.93242 20.7417 4.93242 20.1778C4.93242 19.6138 5.39118 19.1548 5.95525 19.1548C6.51933 19.1548 6.97809 19.6138 6.97809 20.1778C6.97809 20.7417 6.51915 21.2008 5.95525 21.2008ZM10.9389 18.4595H1.19644V3.24767H10.9389V18.4595Z" fill="white"/>
</svg>
