<svg width="120" height="159" viewBox="0 0 120 159" fill="none" xmlns="http://www.w3.org/2000/svg">
<path d="M79.702 19.8131C62.4019 10.9756 41.5622 14.3547 27.8461 28.2212C11.9047 44.3368 10.3092 70.0333 24.135 87.9935C24.6237 88.6283 25.3542 88.9606 26.0927 88.9606C26.6247 88.9606 27.1607 88.7882 27.6132 88.432C28.6936 87.582 28.8877 86.0079 28.0473 84.9157C15.7541 68.9467 17.1748 46.0966 31.3517 31.7646C43.55 19.4321 62.0818 16.4266 77.4669 24.2857C78.6883 24.9105 80.1793 24.4142 80.7968 23.1792C81.4139 21.9441 80.9243 20.437 79.702 19.8131Z" fill="#1FB312"/>
<path d="M99.4933 39.8246C98.8758 38.5896 97.3857 38.094 96.1631 38.7176C94.9414 39.3414 94.4508 40.8482 95.068 42.0839C102.836 57.6349 99.8619 76.3671 87.6663 88.6958C73.4891 103.028 50.8868 104.464 35.0907 92.0364C34.01 91.1867 32.4532 91.383 31.6124 92.4748C30.7717 93.567 30.9661 95.1412 32.0465 95.9912C40.139 102.358 49.8187 105.49 59.4677 105.49C71.0015 105.49 82.4918 101.014 91.1719 92.2391C104.885 78.3763 108.229 57.3125 99.4933 39.8246Z" fill="#1FB312"/>
<path d="M93.0924 30.2796C92.4783 29.5772 91.8332 28.8834 91.1749 28.2182C90.5166 27.5527 89.8307 26.9006 89.1358 26.2798C88.1101 25.363 86.5435 25.4612 85.6376 26.4981C84.7305 27.5347 84.827 29.1182 85.8526 30.0346C86.4716 30.5874 87.0829 31.1687 87.6696 31.7616C88.2557 32.3547 88.8308 32.9724 89.3779 33.5981C89.8675 34.1584 90.5501 34.4444 91.2361 34.4444C91.8194 34.4444 92.4049 34.2373 92.8764 33.8161C93.9024 32.9 93.9989 31.3166 93.0924 30.2796Z" fill="#1FB312"/>
<path d="M118.011 64.7212C119.663 61.98 119.663 58.5752 118.01 55.8346L114.749 50.4289C114.32 49.7165 114.154 48.8706 114.282 48.047L115.254 41.8041C115.749 38.6225 114.456 35.4695 111.88 33.5749L106.827 29.8589C106.159 29.3673 105.684 28.6502 105.489 27.8384L104.018 21.6899C103.271 18.5667 100.887 16.1575 97.7981 15.4016L91.7159 13.9135C90.9129 13.7169 90.203 13.2368 89.7173 12.5614L86.0409 7.45131C84.1671 4.84706 81.048 3.53935 77.9018 4.04057L71.7243 5.02314C70.9096 5.15264 70.0725 4.98495 69.3685 4.5508L64.0204 1.25341C61.3092 -0.417958 57.9412 -0.417647 55.23 1.25341L49.8825 4.54987C49.1784 4.98432 48.342 5.1514 47.5264 5.02221L41.3507 4.03964C38.2046 3.53904 35.0851 4.84613 33.2113 7.45038L29.5355 12.5592C29.0492 13.2346 28.3396 13.7147 27.5363 13.9113L21.4544 15.3992C18.3656 16.1544 15.9819 18.5639 15.2342 21.6868L13.7622 27.8356C13.5677 28.6474 13.0931 29.3651 12.4247 29.8561L7.36994 33.5727C4.79389 35.4667 3.50126 38.6194 3.99613 41.801L4.96806 48.0464C5.09616 48.8703 4.93028 49.7162 4.50084 50.428L1.23945 55.8349C-0.413202 58.5758 -0.413202 61.9806 1.23976 64.7212L4.50053 70.1272C4.92997 70.8396 5.09616 71.6856 4.96776 72.5091L3.99582 78.7524C3.50033 81.9336 4.79328 85.0869 7.36933 86.9813L12.4228 90.6973C13.091 91.1882 13.5659 91.9059 13.7603 92.7177L15.232 98.8662C15.9791 101.989 18.3626 104.399 21.4516 105.154L23.9914 105.776L6.80319 144.537C6.43794 145.36 6.53901 146.319 7.06829 147.046C7.59726 147.773 8.47182 148.157 9.35896 148.049L23.189 146.378L31.1562 157.927C31.6225 158.603 32.3834 159 33.1885 159C33.2656 159 33.3437 158.996 33.4211 158.989C34.3101 158.904 35.0857 158.343 35.4509 157.519L53.005 117.931L55.2294 119.302C56.585 120.138 58.1046 120.555 59.6246 120.555C61.1445 120.555 62.6642 120.137 64.0198 119.302L66.3243 117.882L83.9005 157.519C84.2657 158.343 85.041 158.904 85.9303 158.989C86.0081 158.996 86.0858 159 86.1629 159C86.968 159 87.7292 158.603 88.1952 157.928L96.1624 146.378L109.992 148.05C110.879 148.156 111.754 147.774 112.283 147.046C112.812 146.319 112.914 145.361 112.548 144.537L95.3511 105.755L97.7954 105.157C100.884 104.402 103.268 101.992 104.016 98.8693L105.488 92.7205C105.682 91.9087 106.157 91.191 106.825 90.7001L111.88 86.9834C114.456 85.0894 115.748 81.9367 115.254 78.7552L114.282 72.5098C114.154 71.6859 114.319 70.8399 114.749 70.1282L118.011 64.7212ZM32.7182 151.431L26.4044 142.278C25.8809 141.519 24.9858 141.113 24.0771 141.224L13.1171 142.548L28.777 107.232C29.0633 107.445 29.3202 107.7 29.5318 107.994L33.2082 113.105C33.5575 113.59 33.95 114.03 34.378 114.422L26.1353 133.01C25.5756 134.273 26.134 135.756 27.383 136.322C27.7123 136.471 28.0567 136.542 28.3952 136.542C29.342 136.542 30.2463 135.99 30.6582 135.06L38.8718 116.538C39.68 116.65 40.5121 116.648 41.3474 116.515L47.5248 115.533C47.8947 115.474 48.2685 115.479 48.6326 115.54L32.7182 151.431ZM106.235 142.548L95.2746 141.224C94.365 141.113 93.4708 141.519 92.9474 142.278L86.6335 151.431L70.7124 115.526C71.0463 115.48 71.387 115.48 71.724 115.534L77.8993 116.516C78.7683 116.654 79.6343 116.65 80.4732 116.524L88.6929 135.061C89.1054 135.991 90.0091 136.542 90.9559 136.542C91.2947 136.542 91.6391 136.472 91.9681 136.322C93.2171 135.756 93.7758 134.274 93.2158 133.011L84.9418 114.352C85.3409 113.977 85.7098 113.563 86.0388 113.105L89.7145 107.997C89.9462 107.675 90.23 107.399 90.5489 107.175L106.235 142.548ZM113.778 62.112L110.517 67.5189C109.477 69.2437 109.074 71.2927 109.385 73.2883L110.357 79.5334C110.561 80.8467 110.027 82.1482 108.964 82.9302L103.909 86.6471C102.291 87.8371 101.14 89.5753 100.67 91.5413L99.1977 97.6902C98.8889 98.9793 97.9053 99.9739 96.6299 100.286L90.5476 101.774C88.6025 102.25 86.8829 103.413 85.7058 105.049L82.03 110.158C81.2565 111.233 79.9694 111.772 78.6697 111.565L72.4941 110.583C70.5198 110.269 68.4927 110.675 66.7863 111.727L61.4391 115.023C60.32 115.713 58.9291 115.713 57.8106 115.023L52.4622 111.727C51.1321 110.906 49.6073 110.479 48.0643 110.479C47.6281 110.479 47.1897 110.513 46.755 110.583L40.5773 111.565C39.2779 111.772 37.9908 111.232 37.2173 110.157L33.5406 105.047C32.3634 103.411 30.6441 102.248 28.6993 101.772L22.6171 100.284C21.3419 99.9721 20.358 98.9777 20.0493 97.6883L18.5776 91.5398C18.107 89.5734 16.9566 87.8346 15.338 86.6446L10.2848 82.9283C9.22135 82.1463 8.68777 80.8445 8.89235 79.5312L9.86428 73.288C10.1748 71.2921 9.77305 69.2431 8.73261 67.518L5.47185 62.1117C4.78959 60.9804 4.78959 59.5745 5.47185 58.4435L8.73323 53.0366C9.77336 51.3118 10.1755 49.2628 9.8649 47.2672L8.89297 41.0221C8.68869 39.7088 9.22258 38.4073 10.2857 37.6253L15.3408 33.9084C16.9587 32.7184 18.1094 30.9802 18.58 29.0142L20.0521 22.8653C20.3608 21.5763 21.3444 20.5816 22.6198 20.2695L28.7021 18.7816C30.6472 18.3059 32.3668 17.1426 33.5436 15.5066L37.2194 10.3978C37.9929 9.32267 39.28 8.78263 40.5797 8.98977L46.7554 9.97234C48.7299 10.2869 50.7571 9.88011 52.4632 8.82828L57.8103 5.53182C58.9294 4.8424 60.3203 4.8424 61.4388 5.53182L66.7872 8.82859C68.4933 9.88073 70.5207 10.2872 72.4944 9.97296L78.6722 8.99039C79.9709 8.78449 81.2587 9.3236 82.0322 10.3984L85.7089 15.5085C86.886 17.1441 88.6053 18.3074 90.5501 18.7832L96.6323 20.2713C97.9075 20.5834 98.8914 21.5778 99.2001 22.8672L100.672 29.0157C101.142 30.9821 102.293 32.7209 103.911 33.9109L108.965 37.6269C110.028 38.4089 110.562 39.7107 110.357 41.024L109.385 47.2672C109.075 49.2631 109.477 51.3121 110.517 53.0372L113.778 58.4435C114.46 59.5748 114.46 60.9807 113.778 62.112Z" fill="#1FB312"/>
<path d="M88.6266 52.48C88.0805 50.7801 86.6505 49.5931 84.8947 49.3826L69.9805 47.5948L63.69 33.808C62.9494 32.1851 61.391 31.1768 59.6229 31.1768C57.855 31.1768 56.2964 32.1851 55.5557 33.808L49.2652 47.5951L34.3511 49.3829C32.5952 49.5935 31.1649 50.7804 30.6191 52.4803C30.0729 54.1793 30.5398 55.9895 31.8374 57.2028L42.8638 67.5114L39.9369 82.4034C39.5926 84.1568 40.2671 85.8983 41.6977 86.9486C42.4869 87.5281 43.4026 87.8215 44.3241 87.8215C45.0734 87.8215 45.826 87.6278 46.5174 87.2365L59.6226 79.8209L72.7277 87.2365C74.2707 88.1097 76.1172 87.9995 77.5477 86.9489C78.9783 85.8983 79.6529 84.1565 79.3082 82.4034L76.3813 67.5117L87.4077 57.2031C88.7059 55.9898 89.1728 54.1799 88.6266 52.48ZM71.9975 64.7848C71.3647 65.3764 71.0815 66.2581 71.2492 67.1127L74.2443 82.3516L60.8332 74.7627C60.4572 74.55 60.04 74.4435 59.6226 74.4435C59.2051 74.4435 58.7882 74.5497 58.4119 74.7627L45.0009 82.3516L47.9959 67.1127C48.1643 66.2577 47.8807 65.3764 47.2476 64.7848L35.9641 54.2355L51.2269 52.4061C52.0827 52.3036 52.8246 51.7586 53.1858 50.9676L59.6229 36.8592L66.0599 50.9676C66.4212 51.7586 67.1627 52.3036 68.0188 52.4061L83.281 54.2355L71.9975 64.7848Z" fill="#1FB312"/>
</svg>
