<svg width="20" height="22" viewBox="0 0 20 22" fill="none" xmlns="http://www.w3.org/2000/svg">
<path d="M4.38822 12.2085C4.84511 11.7122 5.08863 11.0542 5.06575 10.3781C5.04286 9.70185 4.75542 9.06214 4.26602 8.59825C3.80506 8.10529 3.1689 7.81608 2.49664 7.79386C1.82439 7.77164 1.17074 8.01821 0.678629 8.47966C0.221997 8.97526 -0.0214111 9.63245 0.00148003 10.3079C0.0243711 10.9834 0.311705 11.6224 0.800828 12.0855C1.26119 12.5791 1.89704 12.8691 2.5693 12.8921C3.24157 12.9152 3.89555 12.6694 4.38822 12.2085Z" fill="white"/>
<path d="M0.818021 0.829579C0.329006 1.27885 0.0362519 1.90442 0.00355299 2.56997C-0.0291459 3.23552 0.200861 3.8871 0.643452 4.38273C1.13594 4.82814 1.7834 5.05962 2.44473 5.02671C3.10607 4.9938 3.72768 4.69918 4.17411 4.20705C4.66497 3.75958 4.96016 3.13497 4.99532 2.46938C5.03047 1.80379 4.80274 1.15121 4.36177 0.653897C3.86928 0.208485 3.22182 -0.0229871 2.56049 0.00992017C1.89915 0.0428275 1.27754 0.337447 0.831114 0.829579" fill="white"/>
<path d="M15.3905 4.19782C15.8331 4.70717 16.4584 5.01909 17.1293 5.0652C17.8001 5.11131 18.4618 4.88783 18.9691 4.44378C19.5041 4.03421 19.8559 3.42797 19.9475 2.75785C20.0391 2.08774 19.8631 1.4084 19.4579 0.868663C19.0148 0.361252 18.3901 0.0510134 17.7203 0.00574925C17.0505 -0.0395149 16.3902 0.183876 15.8836 0.627101C15.3493 1.03593 14.9975 1.64099 14.9051 2.31007C14.8126 2.97915 14.9872 3.65784 15.3905 4.19782Z" fill="white"/>
<path d="M11.9645 8.89668C10.3279 7.46927 8.0803 8.51457 7.90574 10.6535C7.55223 13.1921 7.36021 13.0208 7.14636 13.5698C6.60051 14.4642 5.85294 15.2165 4.96425 15.7658C4.02502 16.1528 3.0457 16.4327 2.04459 16.6003C0.338178 16.9165 -0.787791 19.1477 0.735322 20.6893C2.25843 22.2309 4.55401 21.3042 4.85515 19.1696C5.37012 16.5344 5.54469 16.8375 5.80655 16.2138C6.4494 15.3654 7.22116 14.6243 8.0934 14.0178C8.99264 13.5828 9.9366 13.2485 10.9083 13.0208C12.606 12.608 13.6098 10.3329 11.9819 8.89668" fill="white"/>
<path d="M17.5854 7.9615C15.0672 7.60575 15.2331 7.4125 14.6875 7.19729C13.8049 6.63979 13.066 5.87969 12.5316 4.97931C12.1423 4.03547 11.8625 3.04951 11.6981 2.04104C11.3838 0.323759 9.16245 -0.809386 7.63497 0.727826C6.10749 2.26504 7.02398 4.57086 9.16245 4.87391C11.781 5.39656 11.4798 5.57224 12.1039 5.83137C12.9459 6.47952 13.6822 7.25601 14.286 8.13279C14.7077 9.03903 15.0297 9.98897 15.2462 10.9657C15.6826 12.6742 17.9171 13.6843 19.3442 12.0461C20.7713 10.4079 19.7239 8.13719 17.5985 7.9615" fill="white"/>
</svg>
