<svg width="24" height="24" viewBox="0 0 24 24" fill="none" xmlns="http://www.w3.org/2000/svg">
<path d="M12 20.77C16.8435 20.77 20.77 16.8435 20.77 12C20.77 7.15646 16.8435 3.23 12 3.23C7.15646 3.23 3.23 7.15646 3.23 12C3.23 16.8435 7.15646 20.77 12 20.77Z" fill="#FFC61B"/>
<path d="M12 20.77C16.8435 20.77 20.77 16.8435 20.77 12C20.77 7.15646 16.8435 3.23 12 3.23C7.15646 3.23 3.23 7.15646 3.23 12C3.23 16.8435 7.15646 20.77 12 20.77Z" stroke="#FFC61B" stroke-width="1.54"/>
<path d="M12 20.77C16.8435 20.77 20.77 16.8435 20.77 12C20.77 7.15646 16.8435 3.23 12 3.23C7.15646 3.23 3.23 7.15646 3.23 12C3.23 16.8435 7.15646 20.77 12 20.77Z" stroke="#CC9933" stroke-width="1.54"/>
<path d="M11.545 17.05C11.475 17.05 11.4155 17.0255 11.3665 16.9765C11.3245 16.9345 11.3035 16.8785 11.3035 16.8085V16.0735C10.8135 16.0315 10.39 15.9195 10.033 15.7375C9.676 15.5485 9.403 15.3175 9.214 15.0445C9.032 14.7645 8.934 14.467 8.92 14.152C8.92 14.096 8.941 14.047 8.983 14.005C9.032 13.956 9.088 13.9315 9.151 13.9315H9.697C9.823 13.9315 9.9105 14.0015 9.9595 14.1415C10.0295 14.4355 10.2115 14.6875 10.5055 14.8975C10.7995 15.1075 11.216 15.2125 11.755 15.2125C12.336 15.2125 12.7735 15.111 13.0675 14.908C13.3615 14.698 13.5085 14.4075 13.5085 14.0365C13.5085 13.7985 13.435 13.606 13.288 13.459C13.148 13.312 12.938 13.1825 12.658 13.0705C12.378 12.9585 11.958 12.8185 11.398 12.6505C10.852 12.4965 10.418 12.332 10.096 12.157C9.774 11.982 9.5325 11.765 9.3715 11.506C9.2105 11.247 9.13 10.9215 9.13 10.5295C9.13 10.0115 9.3225 9.574 9.7075 9.217C10.0925 8.853 10.6245 8.636 11.3035 8.566V7.8415C11.3035 7.7715 11.3245 7.7155 11.3665 7.6735C11.4155 7.6245 11.475 7.6 11.545 7.6H11.944C12.014 7.6 12.07 7.6245 12.112 7.6735C12.161 7.7155 12.1855 7.7715 12.1855 7.8415V8.5765C12.6335 8.6325 13.015 8.7585 13.33 8.9545C13.652 9.1505 13.8935 9.3815 14.0545 9.6475C14.2225 9.9135 14.3135 10.1795 14.3275 10.4455C14.3275 10.5015 14.3065 10.5505 14.2645 10.5925C14.2295 10.6345 14.177 10.6555 14.107 10.6555H13.5505C13.4035 10.6555 13.3125 10.589 13.2775 10.456C13.2355 10.162 13.071 9.9205 12.784 9.7315C12.497 9.5355 12.1365 9.4375 11.7025 9.4375C11.2265 9.4375 10.852 9.5285 10.579 9.7105C10.306 9.8925 10.1695 10.162 10.1695 10.519C10.1695 10.757 10.2325 10.953 10.3585 11.107C10.4915 11.261 10.691 11.3975 10.957 11.5165C11.223 11.6285 11.6115 11.758 12.1225 11.905C12.7175 12.066 13.1865 12.234 13.5295 12.409C13.8725 12.577 14.128 12.7905 14.296 13.0495C14.464 13.3015 14.548 13.6235 14.548 14.0155C14.548 14.6105 14.338 15.09 13.918 15.454C13.498 15.811 12.9205 16.021 12.1855 16.084V16.8085C12.1855 16.8785 12.161 16.9345 12.112 16.9765C12.07 17.0255 12.014 17.05 11.944 17.05H11.545Z" fill="#CC9933"/>
</svg>
