<svg width="165" height="165" viewBox="0 0 165 165" fill="none" xmlns="http://www.w3.org/2000/svg">
<g clip-path="url(#clip0)">
<path d="M82.5 144.375C30.9375 144.375 2.0625 88 0.6875 85.25C-1.02445e-07 83.1875 -1.02445e-07 81.125 0.6875 79.0625C9.625 62.5625 22 48.125 37.8125 36.4375C40.5625 33.6875 44.6875 34.375 47.4375 37.8125C49.5 40.5625 49.5 45.375 46.0625 47.4375C33 57.0625 22.6875 68.75 14.4375 82.5C20.625 93.5 45.375 130.625 82.5 130.625C95.5625 130.625 108.625 125.812 118.937 117.562C121.687 115.5 126.5 116.187 128.562 118.937C130.625 121.687 129.938 126.5 127.188 128.562C114.812 138.875 99 144.375 82.5 144.375ZM143 111.375C141.625 111.375 139.562 110.688 138.875 110C136.125 107.25 135.438 103.125 138.188 100.375C143 94.875 147.125 89.375 150.562 83.1875C144.375 72.1875 119.625 35.0625 82.5 35.0625C78.375 35.0625 73.5625 35.75 69.4375 36.4375C66 36.4375 62.5625 34.375 61.1875 30.9375C59.8125 27.5 62.5625 23.375 66 22.6875C71.5 21.3125 77 20.625 82.5 20.625C134.062 20.625 162.938 77 164.312 79.75C165 81.8125 165 83.875 164.312 85.9375C160.188 94.1875 154.688 101.75 148.5 109.312C147.125 110.688 145.062 111.375 143 111.375ZM81.8125 110.688C74.9375 110.688 68.0625 107.938 63.25 103.125C57.75 98.3125 55 91.4375 54.3125 83.875C54.3125 76.3125 56.375 69.4375 61.875 63.9375C62.5625 63.25 62.5625 63.25 63.25 62.5625C66 59.8125 70.125 59.8125 72.875 62.5625C75.625 65.3125 75.625 69.4375 72.875 72.1875L72.1875 72.875C69.4375 75.625 68.0625 79.0625 68.75 82.5C68.75 85.9375 70.125 89.375 72.875 92.125C78.375 97.625 87.3125 96.9375 92.125 91.4375C94.875 88.6875 99 88.6875 101.75 91.4375C104.5 94.1875 104.5 98.3125 101.75 101.062C96.9375 107.25 89.375 110.688 81.8125 110.688Z" fill="black"/>
<path d="M158.125 165C156.062 165 154.688 164.312 153.312 162.938L2.0625 11.6875C-0.6875 8.9375 -0.6875 4.8125 2.0625 2.0625C4.8125 -0.6875 8.9375 -0.6875 11.6875 2.0625L162.938 153.312C165.688 156.062 165.688 160.188 162.938 162.938C161.562 164.312 160.188 165 158.125 165Z" fill="black"/>
</g>
<defs>
<clipPath id="clip0">
<rect width="165" height="165" fill="white"/>
</clipPath>
</defs>
</svg>
