<svg width="40" height="40" viewBox="0 0 40 40" fill="none" xmlns="http://www.w3.org/2000/svg">
<g opacity="0.6">
<mask id="mask0" mask-type="alpha" maskUnits="userSpaceOnUse" x="0" y="0" width="40" height="40">
<rect width="40" height="40" rx="4" fill="#F5F7FA"/>
</mask>
<g mask="url(#mask0)">
<rect x="-6.80847" y="-3.26529" width="53.617" height="47.3469" fill="#F5F7FA"/>
<path d="M8.85045 26.0209L-2.88615 38.4762L-4.02649 39.7454C-4.11476 39.8436 -4.04504 40 -3.91297 40H-2.88615H18.2628C21.7243 40 23.5517 35.9015 21.2383 33.3267L14.7371 26.0908C13.1731 24.3501 10.4553 24.3178 8.85045 26.0209Z" fill="#8464B6"/>
<path d="M25.5079 21.8759L14.135 37.9683L12.9571 39.7162C12.8756 39.8371 12.9623 40 13.1081 40H14.135H36.7364C39.9402 40 41.8439 36.4216 40.0536 33.7647L32.0916 21.9492C30.5273 19.6277 27.1235 19.5898 25.5079 21.8759Z" fill="#A285D0"/>
</g>
<ellipse cx="16.2767" cy="15.4081" rx="4.25532" ry="4.08163" fill="#A285D0"/>
</g>
</svg>
