<svg width="16" height="16" viewBox="0 0 16 16" fill="none" xmlns="http://www.w3.org/2000/svg">
<path fill-rule="evenodd" clip-rule="evenodd" d="M0.380951 2.50723C0.380951 1.33713 1.3371 0.380981 2.5072 0.380981C3.67729 0.380981 4.63344 1.33713 4.63344 2.50723C4.63344 3.67732 3.67729 4.63347 2.5072 4.63347C1.3371 4.63347 0.380951 3.67732 0.380951 2.50723ZM3.9247 2.50715C3.9247 1.72009 3.29426 1.08966 2.5072 1.08966C1.72014 1.08966 1.0897 1.72009 1.0897 2.50715C1.0897 3.29422 1.72014 3.92465 2.5072 3.92465C3.29426 3.92465 3.9247 3.29422 3.9247 2.50715ZM11.7209 4.98782C10.5879 4.98782 9.81772 5.46965 9.24031 6.02325V5.69657C9.24029 5.51102 9.07148 5.34221 8.88594 5.34219H6.05094C5.8654 5.34221 5.69659 5.51102 5.69657 5.69657V15.2647C5.69659 15.4502 5.8654 15.619 6.05094 15.619H9.06312C9.24867 15.619 9.41748 15.4502 9.4175 15.2647V9.94906C9.4175 9.50058 9.55886 9.07552 9.76634 8.78627C9.97382 8.49701 10.2246 8.35437 10.4806 8.35437H10.835C11.091 8.35437 11.3418 8.49701 11.5493 8.78627C11.7568 9.07552 11.8981 9.50058 11.8981 9.94906V15.2647C11.8981 15.4502 12.0669 15.619 12.2525 15.619H15.2647C15.4502 15.619 15.619 15.4502 15.619 15.2647V9.06312C15.619 7.88181 15.3976 6.85626 14.7663 6.11738C14.1351 5.37851 13.1203 4.98782 11.7209 4.98782ZM0.735325 5.69654C0.734571 5.52157 0.882272 5.35859 1.05648 5.34217H4.10188C4.28743 5.34219 4.45624 5.511 4.45626 5.69654V15.2646C4.45624 15.4502 4.28743 15.619 4.10188 15.619H1.0897C0.904155 15.619 0.735344 15.4502 0.735325 15.2646V5.69654ZM11.7209 5.69652C12.9921 5.69652 13.7507 6.02327 14.2237 6.57692C14.6967 7.13057 14.9103 7.97258 14.9103 9.06308V14.9103H12.6069V9.94901C12.6069 9.35698 12.4301 8.80162 12.1251 8.37648C11.8202 7.95133 11.3643 7.64558 10.835 7.64558H10.4806C9.95131 7.64558 9.49542 7.95133 9.19047 8.37648C8.88553 8.80162 8.70875 9.35698 8.70875 9.94901V12.0753V14.9103H6.40531V6.0509H8.53156V6.93683C8.53149 7.08259 8.63109 7.22317 8.76863 7.27143C8.90617 7.31969 9.07177 7.27217 9.16279 7.15832C9.75772 6.41657 10.3917 5.69652 11.7209 5.69652ZM3.74751 6.05097H1.44407V14.9103H3.74751V12.0753V6.05097Z" fill="#7D86A1"/>
</svg>
