<svg width="20" height="20" viewBox="0 0 20 20" fill="none" xmlns="http://www.w3.org/2000/svg">
<path d="M13.6346 14.5183L14.3417 13.8112C13.9746 13.4441 13.3876 13.419 12.9905 13.7534L13.6346 14.5183ZM14.5185 13.6344L13.7535 12.9903C13.4191 13.3874 13.4443 13.9744 13.8114 14.3415L14.5185 13.6344ZM13.2594 13.163L13.8863 13.9421C13.9172 13.9172 13.9466 13.8905 13.9744 13.8622L13.2594 13.163ZM13.1632 13.2592L13.8623 13.9742C13.8907 13.9464 13.9174 13.917 13.9423 13.8861L13.1632 13.2592ZM2.68274 8.95385C2.68274 5.49038 5.49043 2.68269 8.95389 2.68269V0.682693C4.38586 0.682693 0.682739 4.38581 0.682739 8.95385H2.68274ZM8.95389 15.225C5.49043 15.225 2.68274 12.4173 2.68274 8.95385H0.682739C0.682739 13.5219 4.38586 17.225 8.95389 17.225V15.225ZM12.9905 13.7534C11.8992 14.6722 10.4924 15.225 8.95389 15.225V17.225C10.9812 17.225 12.8404 16.4944 14.2787 15.2832L12.9905 13.7534ZM18.5238 17.9933L14.3417 13.8112L12.9275 15.2254L17.1096 19.4075L18.5238 17.9933ZM17.9935 17.9933C18.1399 17.8468 18.3774 17.8468 18.5238 17.9933L17.1096 19.4075C17.7442 20.0421 18.7731 20.0421 19.4077 19.4075L17.9935 17.9933ZM17.9935 18.5236C17.847 18.3772 17.847 18.1397 17.9935 17.9933L19.4077 19.4075C20.0423 18.7729 20.0423 17.744 19.4077 17.1094L17.9935 18.5236ZM13.8114 14.3415L17.9935 18.5236L19.4077 17.1094L15.2256 12.9273L13.8114 14.3415ZM15.225 8.95385C15.225 10.4923 14.6723 11.8991 13.7535 12.9903L15.2834 14.2785C16.4945 12.8402 17.225 10.981 17.225 8.95385H15.225ZM8.95389 2.68269C12.4174 2.68269 15.225 5.49038 15.225 8.95385H17.225C17.225 4.38581 13.5219 0.682693 8.95389 0.682693V2.68269ZM13.9744 13.8622C15.2111 12.5973 15.975 10.8638 15.975 8.95385H13.975C13.975 10.3203 13.4305 11.5576 12.5444 12.4639L13.9744 13.8622ZM15.975 8.95385C15.975 5.07617 12.8316 1.93269 8.95389 1.93269V3.93269C11.727 3.93269 13.975 6.18074 13.975 8.95385H15.975ZM8.95389 1.93269C5.07622 1.93269 1.93274 5.07617 1.93274 8.95385H3.93274C3.93274 6.18074 6.18079 3.93269 8.95389 3.93269V1.93269ZM1.93274 8.95385C1.93274 12.8315 5.07622 15.975 8.95389 15.975V13.975C6.18079 13.975 3.93274 11.727 3.93274 8.95385H1.93274ZM8.95389 15.975C10.8639 15.975 12.5975 15.211 13.8623 13.9742L12.4641 12.5442C11.5578 13.4304 10.3204 13.975 8.95389 13.975V15.975ZM13.9423 13.8861C13.9339 13.8966 13.925 13.9064 13.9158 13.9156L12.5016 12.5014C12.4599 12.5431 12.4207 12.5868 12.3841 12.6323L13.9423 13.8861ZM13.9158 13.9156C13.9066 13.9248 13.8968 13.9337 13.8863 13.9421L12.6324 12.384C12.587 12.4205 12.5433 12.4597 12.5016 12.5014L13.9158 13.9156Z" fill="#501F99"/>
</svg>
