<svg
 xmlns="http://www.w3.org/2000/svg"
 width="40"
 height="40"
 viewBox="0 0 40 40">
 <g fill="none" fillRule="evenodd">
  <path
   fill="#2F313D"
   d="M20 0c11.046 0 20 8.954 20 20 0 3.153-.73 6.135-2.029 10 6 0 0 0-7.969 8.534A19.894 19.894 0 0 1 20 40C8.954 40 0 31.046 0 20S8.954 0 20 0z"
   opacity=".12"
  />
  <g opacity=".85">
   <path d="M8 8h24v24H8z" />
   <path
    fill="#FFF"
    fillRule="nonzero"
    d="M20 30c1.1 0 2-.9 2-2h-4a2 2 0 0 0 2 2zm6-6v-5c0-3.07-1.64-5.64-4.5-6.32V12c0-.83-.67-1.5-1.5-1.5s-1.5.67-1.5 1.5v.68c-2.87.68-4.5 3.24-4.5 6.32v5l-1.29 1.29c-.63.63-.19 1.71.7 1.71h13.17c.89 0 1.34-1.08.71-1.71L26 24z"
   />
  </g>
 </g>
</svg>
