<svg width="401" height="316" viewBox="0 0 401 316" fill="none" xmlns="http://www.w3.org/2000/svg">
<path fill-rule="evenodd" clip-rule="evenodd" d="M200.455 49.6483L200.431 49.5529C180.448 49.5529 162.277 57.5194 149.067 70.3959C135.857 83.2725 127.684 100.989 127.684 120.484H127.782L127.684 120.5C127.688 139.987 135.857 157.699 149.067 170.576C162.273 183.452 180.448 191.427 200.443 191.427V191.332L200.459 191.427C220.451 191.427 238.617 183.452 251.824 170.584C265.038 157.699 273.21 139.987 273.21 120.492H273.113L273.21 120.476C273.21 100.984 265.038 83.2725 251.832 70.3959C238.617 57.5235 220.451 49.5529 200.455 49.5529V49.6483ZM65 55.0063C65 72.1198 50.4453 86 32.5 86C14.5547 86 0 72.1198 0 55.0063C0 37.8844 14.5547 24 32.5 24C50.4453 24 65 37.8844 65 55.0063ZM200.455 0.0953818C234.635 0.0995289 265.533 13.5484 287.836 35.2954C310.135 57.0425 323.934 87.1541 323.942 120.476H324.039L323.942 120.492C323.942 153.818 310.135 183.938 287.832 205.681C265.528 227.423 234.643 240.876 200.459 240.881V240.972L200.443 240.881C166.256 240.881 135.366 227.423 113.063 205.681C90.7592 183.938 76.9609 153.818 76.9569 120.5H76.8555L76.9569 120.484C76.9569 87.1583 90.7592 57.0383 113.063 35.2954C135.366 13.5484 166.256 0.103676 200.431 0.0953818V0L200.455 0.0953818ZM375.537 95.668C389.595 95.668 401 106.778 401 120.484L400.899 120.492C400.899 174.536 378.486 223.409 342.25 258.738C306.015 294.046 255.888 315.905 200.459 315.913V316L200.443 315.913C145.007 315.905 94.8759 294.046 58.6444 258.729C22.413 223.409 0 174.536 0 120.5C0 106.794 11.2957 95.668 25.3616 95.668C39.4235 95.668 50.8246 106.778 50.8246 120.484V120.5C50.8287 160.706 67.5147 197.175 94.6488 223.633C121.787 250.083 159.199 266.455 200.443 266.455V266.36L200.459 266.455C241.696 266.455 279.108 250.083 306.242 223.633C333.384 197.175 350.167 160.706 350.167 120.492H350.074C350.074 106.778 361.471 95.668 375.537 95.668Z" fill="black"/>
</svg>
