<svg width="51" height="42" viewBox="0 0 51 42" fill="none" xmlns="http://www.w3.org/2000/svg">
<path fill-rule="evenodd" clip-rule="evenodd" d="M31.8233 3.26686C27.3257 6.17417 24.4273 13.3886 23.5741 20.4669C22.4732 19.9496 21.2378 19.4928 19.8629 19.1488C16.8558 18.3966 14.9338 16.5555 13.8275 15.088C13.8211 14.4306 13.6534 12.3858 11.9045 11.1025C11.772 11.0053 11.6026 10.9748 11.4451 11.0194C11.2874 11.0642 11.1587 11.179 11.0964 11.3311C11.09 11.3467 10.4778 12.8361 9.79424 14.1643C9.37491 14.3065 8.4001 14.6592 7.35978 15.1902C5.46351 16.1577 4.32225 17.2156 3.96758 18.3345C3.94218 18.4142 3.93578 18.4988 3.94922 18.5815C3.97248 18.7285 4.55848 22.1116 8.80172 23.4445L9.3094 26.7366L7.19653 27.7959C7.18842 27.7998 7.18031 27.8043 7.17241 27.8088C6.17797 28.3726 5.68182 29.1936 5.84571 30.0042C6.01259 30.8298 6.83481 31.4453 7.94065 31.5722C9.33266 31.7315 10.4643 31.4338 11.7752 31.0886C12.1201 30.9978 12.4805 30.9027 12.8646 30.8114C13.1147 30.7519 13.265 30.7448 13.3476 30.7482C13.3185 30.8892 13.2163 31.1263 13.1032 31.3012C13.0219 31.4258 12.9989 31.5717 13.0275 31.7065C13.0191 31.7459 13.0151 31.7868 13.0159 31.8286C13.0206 32.0897 13.0838 38.2306 8.59579 38.7593C8.21935 38.8037 8.06122 39.1297 7.94172 39.4579C7.81218 39.1188 7.65406 38.8028 7.27869 38.7568C2.82952 38.2105 2.97911 32.0859 2.98786 31.8181C2.99362 31.6504 2.92213 31.4978 2.8054 31.3956C2.74373 31.3399 1.75569 30.4252 2.17267 29.2383C2.60758 27.9999 3.70638 27.2233 5.5318 26.8636C5.82095 26.8068 6.00938 26.5253 5.95262 26.2351C5.89607 25.9448 5.61502 25.7563 5.32651 25.8126C3.12934 26.2453 1.72965 27.2779 1.16628 28.8821C0.635341 30.3939 1.51007 31.5734 1.91638 32.0158C1.8944 34.5746 2.9025 39.1353 6.92466 39.7879C6.94749 39.8461 6.97224 39.913 6.99145 39.9659C7.15129 40.4021 7.37045 41 7.94748 41C8.5354 41 8.74602 40.3935 8.89988 39.9502C8.91631 39.9029 8.9368 39.8438 8.95643 39.7906C13.1194 39.1289 14.1339 34.3083 14.0825 31.8069C14.0823 31.789 14.081 31.771 14.0787 31.7532C14.2882 31.3931 14.6316 30.6422 14.2511 30.0968C13.8226 29.483 12.9165 29.6985 12.6186 29.7692C12.2257 29.8626 11.857 29.9594 11.5042 30.0524C10.2475 30.3834 9.25455 30.645 8.06186 30.5079C7.33673 30.4247 6.95133 30.0882 6.89158 29.7915C6.82457 29.4605 7.12141 29.0708 7.68585 28.748L10.1237 27.526C10.1587 27.5093 10.1918 27.4889 10.2219 27.4654C10.2853 27.4165 10.3352 27.355 10.3706 27.2865C10.3706 27.2865 10.3706 27.2863 10.3708 27.2863C10.4056 27.2182 10.4261 27.1421 10.4295 27.0628C10.431 27.0245 10.4285 26.9857 10.4216 26.9472L9.80427 22.9447C9.77226 22.736 9.62117 22.5659 9.41866 22.51C5.95924 21.5548 5.1703 19.1183 5.02881 18.5354C5.69526 16.8794 9.0546 15.5124 10.3245 15.1172C10.4596 15.075 10.5725 14.9811 10.6384 14.8556C11.0917 13.9948 11.5172 13.0544 11.7874 12.434C12.8343 13.6107 12.7596 15.2117 12.7588 15.2282C12.7511 15.3533 12.7872 15.4773 12.861 15.5784C14.0526 17.2098 16.1898 19.3339 19.6049 20.1882C21.0453 20.5485 22.327 21.0451 23.4544 21.6071C23.3137 23.1765 23.276 24.7288 23.3453 26.2126C23.3123 26.2117 23.279 26.2113 23.2457 26.2111C23.2263 26.2108 23.2073 26.2108 23.1878 26.2108C21.0829 26.2108 18.5741 27.2192 17.7792 30.0573C16.8029 33.5414 18.7639 35.6447 20.0291 36.5931L17.0264 37.764C16.5616 37.9493 16.3025 38.4234 16.3964 38.9166C16.4905 39.41 16.9056 39.7542 17.3953 39.7542C17.6023 39.7581 22.4783 39.8519 24.1565 39.754C25.7173 39.6621 27.8824 39.1925 29.3338 37.4753C29.5243 37.2497 29.4968 36.9118 29.2721 36.7205C29.0476 36.5292 28.7106 36.5569 28.5201 36.7824C27.3133 38.2105 25.4471 38.6049 24.0944 38.6844C22.6456 38.7696 18.5688 38.7039 17.6068 38.6867L21.4023 37.2068C21.6019 37.1288 21.7359 36.9388 21.7425 36.7235C21.7489 36.5086 21.6264 36.3107 21.432 36.2209C21.2773 36.1496 17.6623 34.4298 18.8061 30.3472C19.2227 28.8609 20.5895 27.2818 23.1799 27.2818C23.1987 27.2818 23.2177 27.2818 23.2363 27.282C23.2958 27.2826 23.3554 27.2841 23.4155 27.2867C23.4894 28.1621 23.6031 29.008 23.7576 29.8144C24.1033 31.6182 25.0252 32.9263 26.2237 33.3136C26.9304 33.542 27.6515 33.3935 28.1522 32.9175C28.8338 32.2697 29.0243 31.1308 28.6746 29.7932C28.2123 28.0249 26.5374 26.6969 24.4228 26.3192C24.3551 24.9882 24.3773 23.5887 24.4872 22.1623C28.1135 24.2618 29.8425 26.8861 29.8658 26.9217C30.013 27.1517 30.3096 27.2325 30.5527 27.1102C30.7962 26.9881 30.9086 26.7008 30.8139 26.4444C30.7998 26.4062 29.424 22.5887 31.1754 18.6494C32.0642 16.65 33.5123 15.2144 34.8651 14.9919C35.6713 14.859 36.3736 15.0992 36.8433 15.6682C37.3023 16.2241 37.4634 17.0048 37.2434 17.6102C36.7626 18.9367 35.7195 19.2653 35.6796 19.2775C35.4716 19.3362 35.3192 19.5157 35.2944 19.7317C35.2695 19.9474 35.377 20.1571 35.5667 20.2619C35.6773 20.323 38.2982 21.7574 41.1958 21.5931C42.7261 21.5068 44.9444 21.0704 46.8231 19.4804C48.7691 17.8332 49.8607 15.3644 50.0668 12.1432C50.3703 7.39721 47.5318 3.06291 43.1642 1.60294C41.7677 1.13613 40.4139 0.901123 39.0789 0.901123C36.6446 0.901123 34.2737 1.68263 31.8233 3.26686ZM24.5456 21.0136C24.7531 19.1251 25.1104 17.2103 25.6127 15.365C27.057 10.0552 29.4471 6.10161 32.3423 4.23257C36.9385 1.26514 40.4886 1.92956 42.7593 2.68761C46.602 3.97069 49.1966 7.93859 48.9284 12.123C48.774 14.5338 47.6992 20.1811 41.0696 20.554C39.4509 20.6457 37.8834 20.1553 36.9353 19.7747C37.3824 19.4203 37.873 18.8643 38.1823 18.0126C38.5326 17.0491 38.3043 15.877 37.6016 15.0268C36.8911 14.1674 35.8087 13.7856 34.6317 13.9791C32.9099 14.2623 31.1903 15.8979 30.1441 18.2482C29.0759 20.6484 29.051 22.9666 29.2531 24.5894C28.2425 23.5325 26.6899 22.1759 24.5456 21.0136ZM26.5964 32.2405C25.9613 32.0381 25.169 31.2366 24.8496 29.5938C24.7167 28.9099 24.6157 28.19 24.5456 27.4434C25.9581 27.7637 27.3097 28.6071 27.6897 30.041C27.9341 30.9624 27.8506 31.7278 27.4656 32.0885C27.3195 32.2252 27.1349 32.2952 26.9277 32.2952C26.8224 32.2952 26.7113 32.277 26.5964 32.2405Z" fill="white"/>
<path d="M9.3094 26.7366L9.36542 26.8483L9.44681 26.8075L9.43294 26.7175L9.3094 26.7366ZM7.19653 27.7959L7.25022 27.9088L7.25255 27.9077L7.19653 27.7959ZM10.1237 27.526L10.0699 27.4132L10.0677 27.4143L10.1237 27.526ZM9.80427 22.9447L9.68072 22.9637L9.68073 22.9638L9.80427 22.9447ZM17.0264 37.764L16.9809 37.6476L16.9801 37.6479L17.0264 37.764ZM21.4023 37.2068L21.4477 37.3233L21.4478 37.3232L21.4023 37.2068ZM31.7554 3.16188C29.4789 4.63342 27.6171 7.18742 26.2183 10.2508C24.8188 13.316 23.8779 16.902 23.45 20.452L23.6982 20.4819C24.1235 16.9535 25.0584 13.3931 26.4457 10.3547C27.8339 7.31446 29.67 4.80761 31.8911 3.37184L31.7554 3.16188ZM23.6273 20.3538C22.5194 19.8331 21.2764 19.3736 19.8932 19.0275L19.8325 19.27C21.1992 19.612 22.427 20.066 23.5209 20.5801L23.6273 20.3538ZM19.8932 19.0275C16.9224 18.2844 15.0224 16.4655 13.9273 15.0128L13.7277 15.1633C14.8451 16.6455 16.7893 18.5088 19.8325 19.27L19.8932 19.0275ZM13.9525 15.0868C13.946 14.4196 13.7771 12.3215 11.9785 11.0017L11.8306 11.2033C13.5296 12.45 13.6962 14.4415 13.7025 15.0893L13.9525 15.0868ZM11.9785 11.0017C11.8149 10.8817 11.6056 10.8441 11.4111 10.8991L11.4791 11.1397C11.5996 11.1056 11.7291 11.1288 11.8306 11.2033L11.9785 11.0017ZM11.411 10.8992C11.2164 10.9544 11.0576 11.0961 10.9807 11.2837L11.2121 11.3785C11.2598 11.2619 11.3584 11.1739 11.4792 11.1396L11.411 10.8992ZM10.9807 11.2837C10.9746 11.2988 10.364 12.7839 9.68309 14.1071L9.90539 14.2215C10.5915 12.8882 11.2054 11.3947 11.2121 11.3785L10.9807 11.2837ZM9.75408 14.0459C9.3317 14.1892 8.35068 14.544 7.30294 15.0789L7.41661 15.3016C8.44952 14.7743 9.41812 14.4239 9.8344 14.2827L9.75408 14.0459ZM7.30297 15.0789C5.39901 16.0503 4.2188 17.1282 3.84842 18.2967L4.08673 18.3723C4.42569 17.3029 5.52801 16.2651 7.41658 15.3016L7.30297 15.0789ZM3.84848 18.2965C3.81716 18.3948 3.80922 18.4993 3.82584 18.6015L4.0726 18.5614C4.06234 18.4983 4.06721 18.4335 4.08668 18.3724L3.84848 18.2965ZM3.82576 18.601C3.8521 18.7674 4.45424 22.2098 8.76426 23.5638L8.83918 23.3252C4.66272 22.0133 4.09287 18.6895 4.07269 18.5619L3.82576 18.601ZM8.67818 23.4636L9.18586 26.7556L9.43294 26.7175L8.92526 23.4254L8.67818 23.4636ZM9.25337 26.6248L7.1405 27.6842L7.25255 27.9077L9.36542 26.8483L9.25337 26.6248ZM7.14285 27.683C7.13032 27.689 7.11886 27.6954 7.11053 27.7002L7.23429 27.9174C7.24176 27.9131 7.24652 27.9106 7.25021 27.9088L7.14285 27.683ZM7.11076 27.7C6.09165 28.2779 5.54425 29.1439 5.72319 30.029L5.96823 29.9794C5.81939 29.2432 6.26429 28.4674 7.23407 27.9175L7.11076 27.7ZM5.72318 30.029C5.9046 30.9265 6.78865 31.5659 7.92641 31.6963L7.95489 31.448C6.88098 31.3248 6.12057 30.7332 5.96823 29.9794L5.72318 30.029ZM7.92643 31.6963C9.34486 31.8588 10.498 31.5541 11.8071 31.2095L11.7434 30.9678C10.4306 31.3134 9.32045 31.6043 7.95487 31.448L7.92643 31.6963ZM11.8071 31.2095C12.1521 31.1186 12.5111 31.0239 12.8935 30.933L12.8357 30.6898C12.4499 30.7815 12.088 30.877 11.7434 30.9678L11.8071 31.2095ZM12.8936 30.933C13.135 30.8755 13.2736 30.8703 13.3424 30.8731L13.3527 30.6233C13.2564 30.6193 13.0945 30.6282 12.8357 30.6898L12.8936 30.933ZM13.2251 30.723C13.2 30.845 13.1054 31.0677 12.9983 31.2333L13.2082 31.3691C13.3273 31.185 13.437 30.9334 13.47 30.7734L13.2251 30.723ZM12.9985 31.2329C12.8984 31.3864 12.87 31.5664 12.9052 31.7324L13.1497 31.6805C13.1278 31.577 13.1454 31.4652 13.2079 31.3694L12.9985 31.2329ZM12.9052 31.6807C12.8949 31.7292 12.8899 31.7796 12.891 31.8311L13.1409 31.826C13.1403 31.794 13.1434 31.7626 13.1498 31.7323L12.9052 31.6807ZM12.891 31.8308C12.8932 31.9569 12.9099 33.5404 12.372 35.1541C11.8342 36.7677 10.755 38.3791 8.58116 38.6352L8.61041 38.8835C10.9246 38.6109 12.0578 36.8874 12.6092 35.2332C13.1606 33.5789 13.1433 31.9614 13.1409 31.8263L12.891 31.8308ZM8.58116 38.6352C8.12169 38.6893 7.94169 39.0927 7.82426 39.4152L8.05917 39.5007C8.18076 39.1668 8.31701 38.918 8.61041 38.8835L8.58116 38.6352ZM8.05849 39.4133C7.93107 39.0798 7.75053 38.6887 7.29391 38.6327L7.26346 38.8808C7.55758 38.9169 7.6933 39.1579 7.82495 39.5025L8.05849 39.4133ZM7.29392 38.6327C5.14029 38.3683 4.09191 36.7578 3.58071 35.1452C3.06952 33.5327 3.10857 31.9515 3.11279 31.8222L2.86293 31.814C2.8584 31.9524 2.81828 33.5675 3.3424 35.2208C3.86651 36.874 4.96791 38.599 7.26345 38.8808L7.29392 38.6327ZM3.11279 31.8224C3.11988 31.6158 3.0317 31.4276 2.88774 31.3016L2.72307 31.4897C2.81256 31.568 2.86736 31.6849 2.86293 31.8138L3.11279 31.8224ZM2.88918 31.3029C2.86349 31.2797 2.613 31.0485 2.4201 30.6828C2.22799 30.3187 2.09718 29.8303 2.29061 29.2798L2.05474 29.1969C1.83118 29.8332 1.9859 30.3956 2.19898 30.7995C2.41127 31.2019 2.68564 31.4559 2.72162 31.4884L2.88918 31.3029ZM2.29061 29.2798C2.70514 28.0993 3.75386 27.3413 5.55596 26.9862L5.50763 26.741C3.65889 27.1052 2.51002 27.9004 2.05473 29.1969L2.29061 29.2798ZM5.55588 26.9863C5.91319 26.9161 6.14521 26.5686 6.0753 26.2111L5.82994 26.259C5.87355 26.4821 5.72871 26.6976 5.50771 26.7409L5.55588 26.9863ZM6.07531 26.2112C6.00556 25.8531 5.65883 25.6203 5.30255 25.6899L5.35046 25.9353C5.57121 25.8922 5.78658 26.0365 5.82993 26.259L6.07531 26.2112ZM5.30235 25.69C3.07745 26.1282 1.63101 27.1816 1.04834 28.8407L1.28422 28.9235C1.8283 27.3743 3.18123 26.3625 5.35066 25.9352L5.30235 25.69ZM1.04834 28.8407C0.493329 30.421 1.41014 31.6494 1.82432 32.1004L2.00844 31.9313C1.60999 31.4974 0.777354 30.3668 1.28422 28.9235L1.04834 28.8407ZM1.79138 32.0148C1.78028 33.3077 2.02888 35.108 2.79162 36.6715C3.55586 38.2381 4.8423 39.5767 6.90464 39.9112L6.94467 39.6645C4.98485 39.3465 3.75617 38.0785 3.01631 36.5619C2.27496 35.0422 2.0305 33.2827 2.04137 32.0169L1.79138 32.0148ZM6.80827 39.8335C6.83056 39.8903 6.85491 39.9561 6.87395 40.0085L7.10895 39.9232C7.08958 39.8699 7.06442 39.8019 7.04104 39.7423L6.80827 39.8335ZM6.87408 40.0089C6.9528 40.2237 7.05289 40.4992 7.21158 40.7195C7.37385 40.9449 7.60663 41.125 7.94748 41.125V40.875C7.7113 40.875 7.54599 40.7561 7.41445 40.5734C7.27935 40.3858 7.18993 40.1442 7.10882 39.9229L6.87408 40.0089ZM7.94748 41.125C8.29398 41.125 8.5277 40.9425 8.68875 40.7132C8.84596 40.4893 8.94222 40.2095 9.01797 39.9912L8.7818 39.9093C8.70369 40.1343 8.6177 40.3793 8.48416 40.5695C8.35445 40.7542 8.1889 40.875 7.94748 40.875V41.125ZM9.01797 39.9912C9.03451 39.9436 9.05457 39.8857 9.07368 39.834L8.83918 39.7473C8.81904 39.8018 8.79812 39.8622 8.78179 39.9093L9.01797 39.9912ZM8.97606 39.9141C11.1101 39.5749 12.4333 38.1677 13.2126 36.5427C13.9906 34.9205 14.2335 33.0696 14.2075 31.8044L13.9575 31.8095C13.9829 33.0456 13.7444 34.8557 12.9872 36.4346C12.2314 38.0106 10.9658 39.3447 8.93681 39.6672L8.97606 39.9141ZM14.2075 31.8055C14.2072 31.7825 14.2056 31.7596 14.2026 31.7368L13.9547 31.7695C13.9564 31.7823 13.9574 31.7954 13.9575 31.8084L14.2075 31.8055ZM14.1867 31.816C14.2946 31.6306 14.44 31.3399 14.5084 31.0206C14.5767 30.7017 14.5714 30.3374 14.3536 30.0252L14.1486 30.1683C14.3113 30.4016 14.3245 30.6854 14.2639 30.9683C14.2034 31.2509 14.0723 31.5156 13.9706 31.6903L14.1867 31.816ZM14.3536 30.0252C14.1081 29.6735 13.7286 29.5663 13.3914 29.5514C13.0547 29.5366 12.7384 29.6123 12.5897 29.6476L12.6474 29.8908C12.7967 29.8554 13.0823 29.788 13.3804 29.8012C13.6778 29.8143 13.9656 29.9062 14.1486 30.1683L14.3536 30.0252ZM12.5897 29.6476C12.1951 29.7414 11.825 29.8386 11.4724 29.9315L11.5361 30.1733C11.8889 30.0803 12.2563 29.9838 12.6475 29.8908L12.5897 29.6476ZM11.4724 29.9315C10.2127 30.2633 9.24198 30.5177 8.07614 30.3837L8.04759 30.632C9.26713 30.7722 10.2823 30.5035 11.536 30.1733L11.4724 29.9315ZM8.0761 30.3837C7.37153 30.3029 7.05778 29.9836 7.01412 29.7668L6.76904 29.8162C6.84489 30.1928 7.30193 30.5466 8.04763 30.632L8.0761 30.3837ZM7.01409 29.7667C6.9902 29.6486 7.0279 29.5046 7.15138 29.3424C7.27453 29.1806 7.47502 29.0126 7.74791 28.8565L7.62379 28.6395C7.33225 28.8062 7.10209 28.9944 6.95246 29.191C6.80317 29.3871 6.72595 29.6033 6.76906 29.8163L7.01409 29.7667ZM7.74186 28.8597L10.1797 27.6378L10.0677 27.4143L7.62984 28.6362L7.74186 28.8597ZM10.1776 27.6388C10.2205 27.6183 10.2614 27.5932 10.299 27.5638L10.1448 27.367C10.1222 27.3847 10.0969 27.4003 10.0699 27.4132L10.1776 27.6388ZM10.2982 27.5644C10.3767 27.5039 10.4382 27.4279 10.4817 27.3439L10.2596 27.2291C10.2322 27.2822 10.1938 27.3292 10.1456 27.3664L10.2982 27.5644ZM10.3706 27.2865C10.4956 27.2865 10.4956 27.2865 10.4956 27.2866C10.4956 27.2866 10.4956 27.2867 10.4956 27.2867C10.4956 27.2868 10.4956 27.2869 10.4956 27.287C10.4956 27.2871 10.4956 27.2873 10.4956 27.2875C10.4956 27.2878 10.4956 27.2882 10.4956 27.2885C10.4956 27.2892 10.4956 27.2899 10.4956 27.2906C10.4955 27.2921 10.4954 27.2937 10.4953 27.2954C10.4951 27.2987 10.4947 27.3026 10.4939 27.307C10.4926 27.3152 10.4896 27.328 10.4825 27.3423C10.4751 27.3571 10.462 27.3757 10.4401 27.3903C10.4173 27.4055 10.3927 27.4113 10.3708 27.4113V27.1613C10.3489 27.1613 10.3242 27.1671 10.3014 27.1823C10.2794 27.197 10.2663 27.2156 10.2589 27.2305C10.2517 27.2449 10.2487 27.2577 10.2473 27.2659C10.2466 27.2703 10.2462 27.2743 10.246 27.2776C10.2458 27.2793 10.2458 27.2809 10.2457 27.2823C10.2457 27.2831 10.2457 27.2838 10.2456 27.2845C10.2456 27.2848 10.2456 27.2852 10.2456 27.2855C10.2456 27.2857 10.2456 27.2858 10.2456 27.286C10.2456 27.2861 10.2456 27.2862 10.2456 27.2863C10.2456 27.2863 10.2456 27.2864 10.2456 27.2864C10.2456 27.2864 10.2456 27.2865 10.3706 27.2865ZM10.4822 27.3431C10.5251 27.2591 10.5502 27.1656 10.5544 27.0682L10.3046 27.0575C10.302 27.1186 10.2862 27.1772 10.2595 27.2294L10.4822 27.3431ZM10.5544 27.0677C10.5563 27.0205 10.5531 26.9728 10.5447 26.9254L10.2986 26.969C10.3038 26.9986 10.3058 27.0285 10.3046 27.058L10.5544 27.0677ZM10.5452 26.9281L9.92781 22.9256L9.68073 22.9638L10.2981 26.9662L10.5452 26.9281ZM9.92782 22.9257C9.88838 22.6686 9.7021 22.4586 9.45192 22.3895L9.38539 22.6305C9.54025 22.6733 9.65614 22.8035 9.68072 22.9637L9.92782 22.9257ZM9.45193 22.3895C6.05176 21.4507 5.28549 19.063 5.15029 18.5059L4.90734 18.5649C5.0551 19.1737 5.86671 21.6589 9.38539 22.6305L9.45193 22.3895ZM5.14477 18.5821C5.30077 18.1945 5.61899 17.8141 6.04018 17.4532C6.4601 17.0934 6.97437 16.7595 7.51085 16.4629C8.58402 15.8696 9.73327 15.4321 10.3617 15.2365L10.2874 14.9978C9.64586 15.1975 8.48048 15.6412 7.38988 16.2441C6.84447 16.5457 6.31459 16.8888 5.8775 17.2634C5.44169 17.6368 5.09008 18.0484 4.91285 18.4888L5.14477 18.5821ZM10.3618 15.2365C10.5284 15.1845 10.6677 15.0687 10.7491 14.9137L10.5278 14.7975C10.4773 14.8936 10.3908 14.9655 10.2873 14.9979L10.3618 15.2365ZM10.7491 14.9138C11.2044 14.0491 11.6313 13.1054 11.902 12.4839L11.6728 12.3841C11.4031 13.0033 10.979 13.9406 10.5278 14.7974L10.7491 14.9138ZM11.694 12.517C12.198 13.0835 12.4341 13.7548 12.5435 14.2911C12.5981 14.5587 12.6208 14.791 12.6298 14.9568C12.6343 15.0397 12.6353 15.1059 12.6352 15.1514C12.6352 15.1971 12.634 15.2218 12.634 15.2217L12.8836 15.2346C12.8847 15.2138 12.9631 13.5674 11.8808 12.3509L11.694 12.517ZM12.634 15.2205C12.6246 15.3745 12.6689 15.5274 12.7601 15.6521L12.962 15.5047C12.9054 15.4273 12.8776 15.332 12.8836 15.2358L12.634 15.2205ZM12.7601 15.6522C13.9626 17.2985 16.1222 19.4458 19.5745 20.3095L19.6352 20.0669C16.2574 19.2219 14.1427 17.1211 12.9619 15.5047L12.7601 15.6522ZM19.5745 20.3095C21.0056 20.6675 22.2788 21.1608 23.3986 21.7189L23.5101 21.4952C22.3752 20.9295 21.085 20.4296 19.6352 20.0669L19.5745 20.3095ZM23.3299 21.5959C23.1888 23.1706 23.1508 24.7286 23.2205 26.2184L23.4702 26.2067C23.4011 24.729 23.4387 23.1824 23.5789 21.6182L23.3299 21.5959ZM23.3486 26.0876C23.3144 26.0867 23.2803 26.0863 23.2465 26.0861L23.2449 26.3361C23.2776 26.3363 23.3101 26.3367 23.3421 26.3375L23.3486 26.0876ZM23.2471 26.0861C23.2268 26.0858 23.2071 26.0858 23.1878 26.0858V26.3358C23.2074 26.3358 23.2257 26.3358 23.2443 26.3361L23.2471 26.0861ZM23.1878 26.0858C21.0488 26.0858 18.4741 27.113 17.6589 30.0236L17.8996 30.0911C18.6742 27.3255 21.1169 26.3358 23.1878 26.3358V26.0858ZM17.6589 30.0236C16.6624 33.5795 18.6698 35.7304 19.9541 36.6931L20.1041 36.493C18.8579 35.5589 16.9434 33.5032 17.8996 30.0911L17.6589 30.0236ZM19.9837 36.4766L16.9809 37.6476L17.0718 37.8805L20.0745 36.7095L19.9837 36.4766ZM16.9801 37.6479C16.4594 37.8555 16.1686 38.3883 16.2736 38.94L16.5192 38.8932C16.4364 38.4586 16.6638 38.0432 17.0726 37.8801L16.9801 37.6479ZM16.2736 38.94C16.3788 39.4912 16.8445 39.8792 17.3953 39.8792V39.6292C16.9667 39.6292 16.6023 39.3287 16.5192 38.8932L16.2736 38.94ZM17.393 39.8792C17.5969 39.883 22.4794 39.9771 24.1637 39.8788L24.1492 39.6292C22.4772 39.7268 17.6078 39.6332 17.3977 39.6292L17.393 39.8792ZM24.1638 39.8788C25.7373 39.7861 27.945 39.3122 29.4292 37.5559L29.2383 37.3946C27.8199 39.0729 25.6972 39.5381 24.1491 39.6292L24.1638 39.8788ZM29.4292 37.5559C29.6642 37.2778 29.6303 36.8614 29.3531 36.6253L29.191 36.8157C29.3632 36.9623 29.3845 37.2215 29.2383 37.3946L29.4292 37.5559ZM29.3532 36.6254C29.0759 36.3891 28.6598 36.4233 28.4246 36.7018L28.6155 36.8631C28.7615 36.6904 29.0193 36.6693 29.191 36.8157L29.3532 36.6254ZM28.4246 36.7018C27.2515 38.09 25.4289 38.4807 24.087 38.5596L24.1017 38.8091C25.4653 38.729 27.3751 38.331 28.6155 36.8631L28.4246 36.7018ZM24.087 38.5596C22.6443 38.6445 18.5738 38.5789 17.609 38.5617L17.6046 38.8117C18.5638 38.8288 22.6469 38.8948 24.1017 38.8091L24.087 38.5596ZM17.6522 38.8032L21.4477 37.3233L21.3569 37.0904L17.5614 38.5703L17.6522 38.8032ZM21.4478 37.3232C21.6942 37.227 21.8593 36.9925 21.8674 36.7274L21.6175 36.7197C21.6125 36.8851 21.5095 37.0307 21.3568 37.0904L21.4478 37.3232ZM21.8674 36.7272C21.8753 36.4624 21.7244 36.2183 21.4844 36.1075L21.3796 36.3344C21.5284 36.4031 21.6225 36.5549 21.6175 36.7198L21.8674 36.7272ZM21.4843 36.1074C21.4143 36.0751 20.4914 35.637 19.7287 34.7089C18.9704 33.7863 18.3672 32.3771 18.9265 30.3809L18.6857 30.3135C18.1012 32.3998 18.7335 33.8918 19.5355 34.8676C20.333 35.8379 21.295 36.2954 21.3797 36.3344L21.4843 36.1074ZM18.9265 30.3809C19.3297 28.9421 20.652 27.4068 23.1799 27.4068V27.1568C20.527 27.1568 19.1156 28.7796 18.6857 30.3135L18.9265 30.3809ZM23.1799 27.4068C23.1989 27.4068 23.2171 27.4068 23.2348 27.407L23.2377 27.157C23.2183 27.1568 23.1986 27.1568 23.1799 27.1568V27.4068ZM23.2349 27.407C23.2933 27.4076 23.3515 27.4091 23.4102 27.4116L23.4209 27.1618C23.3593 27.1592 23.2984 27.1577 23.2376 27.157L23.2349 27.407ZM23.291 27.2972C23.3652 28.1765 23.4795 29.0269 23.6349 29.8379L23.8804 29.7909C23.7268 28.9892 23.6136 28.1476 23.5401 27.2762L23.291 27.2972ZM23.6349 29.8379C23.9848 31.6638 24.925 33.0253 26.1852 33.4326L26.2621 33.1947C25.1254 32.8273 24.2219 31.5727 23.8804 29.7909L23.6349 29.8379ZM26.1852 33.4326C26.9316 33.6737 27.7015 33.5185 28.2383 33.0081L28.066 32.8269C27.6015 33.2686 26.9293 33.4103 26.2621 33.1947L26.1852 33.4326ZM28.2383 33.0081C28.967 32.3155 29.1508 31.1204 28.7955 29.7616L28.5536 29.8248C28.8979 31.1413 28.7005 32.2239 28.066 32.8269L28.2383 33.0081ZM28.7955 29.7616C28.3179 27.9344 26.594 26.5801 24.4448 26.1962L24.4008 26.4423C26.4807 26.8138 28.1068 28.1155 28.5536 29.8248L28.7955 29.7616ZM24.5476 26.3129C24.4803 24.9876 24.5023 23.5934 24.6119 22.1719L24.3626 22.1527C24.2523 23.584 24.23 24.9889 24.2979 26.3256L24.5476 26.3129ZM24.4246 22.2705C28.0278 24.3566 29.7438 26.9636 29.7611 26.9901L29.9704 26.8532C29.9412 26.8086 28.1993 24.167 24.5499 22.0542L24.4246 22.2705ZM29.7605 26.989C29.9423 27.2732 30.3087 27.3729 30.6089 27.2218L30.4965 26.9985C30.3106 27.0921 30.0837 27.0303 29.971 26.8543L29.7605 26.989ZM30.6087 27.2219C30.9096 27.071 31.0478 26.7167 30.9311 26.401L30.6966 26.4877C30.7695 26.6849 30.6827 26.9051 30.4967 26.9984L30.6087 27.2219ZM30.9311 26.401C30.9311 26.401 30.9308 26.4 30.93 26.3977C30.9292 26.3956 30.9281 26.3925 30.9267 26.3885C30.9239 26.3805 30.9199 26.369 30.9149 26.354C30.9048 26.324 30.8905 26.2801 30.873 26.2233C30.8382 26.1098 30.7908 25.9445 30.7396 25.7346C30.6372 25.3149 30.5199 24.7173 30.4571 23.9989C30.3316 22.5615 30.425 20.6449 31.2896 18.7002L31.0612 18.5986C29.2891 22.5843 30.6798 26.442 30.6966 26.4877L30.9311 26.401ZM31.2896 18.7002C31.7286 17.7127 32.3045 16.8674 32.9343 16.2431C33.5653 15.6176 34.2431 15.2209 34.8854 15.1152L34.8448 14.8685C34.1343 14.9854 33.4117 15.4178 32.7583 16.0655C32.1036 16.7145 31.511 17.5867 31.0612 18.5986L31.2896 18.7002ZM34.8854 15.1152C35.6534 14.9887 36.309 15.2173 36.7469 15.7478L36.9397 15.5886C36.4382 14.9811 35.6892 14.7294 34.8448 14.8685L34.8854 15.1152ZM36.7469 15.7478C37.1818 16.2745 37.3287 17.0094 37.1259 17.5675L37.3609 17.6529C37.5981 17.0001 37.4228 16.1737 36.9397 15.5886L36.7469 15.7478ZM37.1259 17.5676C36.6645 18.8405 35.6663 19.1509 35.643 19.158L35.7162 19.3971C35.7727 19.3798 36.8607 19.0329 37.3609 17.6528L37.1259 17.5676ZM35.6457 19.1572C35.3885 19.2298 35.2007 19.4514 35.1702 19.7175L35.4186 19.7459C35.4376 19.5801 35.5546 19.4427 35.7136 19.3978L35.6457 19.1572ZM35.1703 19.7173C35.1395 19.9832 35.272 20.2419 35.5063 20.3713L35.6272 20.1525C35.4821 20.0724 35.3994 19.9117 35.4186 19.7461L35.1703 19.7173ZM35.5063 20.3713C35.6198 20.434 38.2676 21.8844 41.2029 21.7179L41.1887 21.4683C38.3289 21.6305 35.7348 20.2119 35.6272 20.1525L35.5063 20.3713ZM41.2028 21.7179C42.7477 21.6308 44.9965 21.19 46.9039 19.5758L46.7424 19.385C44.8922 20.9508 42.7045 21.3828 41.1887 21.4683L41.2028 21.7179ZM46.9039 19.5758C48.8823 17.9011 49.9838 15.3968 50.1916 12.1512L49.9421 12.1353C49.7375 15.332 48.6559 17.7652 46.7424 19.385L46.9039 19.5758ZM50.1916 12.1512C50.4985 7.3512 47.6277 2.96316 43.2038 1.48439L43.1246 1.72149C47.436 3.16267 50.2421 7.44321 49.9421 12.1353L50.1916 12.1512ZM43.2038 1.48439C41.7961 1.01382 40.4289 0.776123 39.0789 0.776123V1.02612C40.3989 1.02612 41.7393 1.25845 43.1246 1.72149L43.2038 1.48439ZM39.0789 0.776123C36.6157 0.776123 34.2217 1.56746 31.7554 3.16189L31.8911 3.37183C34.3258 1.79781 36.6735 1.02612 39.0789 1.02612V0.776123ZM24.6699 21.0272C24.8766 19.145 25.2328 17.2366 25.7333 15.3978L25.4921 15.3321C24.988 17.184 24.6295 19.1052 24.4214 20.9999L24.6699 21.0272ZM25.7333 15.3978C27.1741 10.1009 29.5525 6.18239 32.4101 4.33759L32.2745 4.12755C29.3417 6.02084 26.9399 10.0095 25.4921 15.3322L25.7333 15.3978ZM32.4101 4.33758C34.6914 2.86471 36.7075 2.29642 38.4307 2.18779C40.1548 2.0791 41.593 2.43 42.7198 2.80618L42.7989 2.56904C41.655 2.18716 40.1828 1.82684 38.415 1.93828C36.6464 2.04978 34.5894 2.633 32.2745 4.12755L32.4101 4.33758ZM42.7197 2.80617C46.506 4.07042 49.0684 7.98443 48.8036 12.1151L49.0531 12.131C49.3248 7.89276 46.6981 3.87097 42.7989 2.56904L42.7197 2.80617ZM48.8036 12.1151C48.727 13.3113 48.4221 15.3016 47.3217 17.0357C46.2257 18.7628 44.3356 20.2451 41.0626 20.4292L41.0767 20.6788C44.4333 20.49 46.3953 18.9622 47.5328 17.1697C48.6657 15.3843 48.9753 13.3455 49.0531 12.131L48.8036 12.1151ZM41.0626 20.4292C39.4706 20.5194 37.9231 20.0365 36.9818 19.6587L36.8887 19.8907C37.8438 20.274 39.4313 20.772 41.0767 20.6788L41.0626 20.4292ZM37.0129 19.8727C37.4755 19.506 37.9815 18.9317 38.2998 18.0553L38.0649 17.9699C37.7645 18.7969 37.2892 19.3346 36.8576 19.6768L37.0129 19.8727ZM38.2998 18.0553C38.6666 17.0464 38.4262 15.8283 37.6979 14.9471L37.5052 15.1064C38.1824 15.9256 38.3987 17.0518 38.0649 17.9699L38.2998 18.0553ZM37.6979 14.9471C36.9568 14.0506 35.8285 13.6556 34.6115 13.8557L34.652 14.1024C35.7888 13.9155 36.8255 14.2841 37.5052 15.1064L37.6979 14.9471ZM34.6115 13.8557C32.8307 14.1486 31.0846 15.8281 30.0299 18.1973L30.2583 18.299C31.2961 15.9677 32.989 14.376 34.652 14.1024L34.6115 13.8557ZM30.0299 18.1973C28.9497 20.6245 28.9251 22.9673 29.129 24.6049L29.3771 24.574C29.1768 22.966 29.2021 20.6723 30.2583 18.299L30.0299 18.1973ZM29.3434 24.503C28.3257 23.4387 26.763 22.0733 24.6052 20.9037L24.486 21.1235C26.6167 22.2784 28.1593 23.6263 29.1627 24.6758L29.3434 24.503ZM26.6343 32.1214C26.0585 31.9379 25.2866 31.1868 24.9723 29.57L24.7269 29.6177C25.0513 31.2864 25.8641 32.1384 26.5584 32.3596L26.6343 32.1214ZM24.9723 29.57C24.8403 28.8905 24.7398 28.1746 24.6701 27.4317L24.4212 27.4551C24.4916 28.2053 24.5931 28.9293 24.7269 29.6177L24.9723 29.57ZM24.518 27.5653C25.9087 27.8807 27.2059 28.7035 27.5689 30.073L27.8105 30.009C27.4134 28.5107 26.0074 27.6467 24.5732 27.3215L24.518 27.5653ZM27.5689 30.073C27.6882 30.523 27.7258 30.9288 27.6894 31.2614C27.6529 31.5951 27.5435 31.8442 27.3802 31.9972L27.5511 32.1797C27.7727 31.972 27.8975 31.6581 27.9379 31.2886C27.9785 30.9179 27.9356 30.4804 27.8105 30.009L27.5689 30.073ZM27.3802 31.9972C27.2586 32.1111 27.1051 32.1702 26.9277 32.1702V32.4202C27.1648 32.4202 27.3804 32.3394 27.551 32.1797L27.3802 31.9972ZM26.9277 32.1702C26.8368 32.1702 26.7385 32.1545 26.6343 32.1214L26.5585 32.3596C26.6841 32.3996 26.808 32.4202 26.9277 32.4202V32.1702Z" fill="white"/>
</svg>
