<svg xmlns="http://www.w3.org/2000/svg" width="29" height="29" viewBox="0 0 29 29">
    <g fill="none" fill-rule="evenodd">
        <path d="M0 0h29v29H0z"/>
        <path fill-rule="nonzero" stroke="#FFF" stroke-width="1.25" d="M23.18 10.875v9.063c0 .325-.137.62-.354.835a1.22 1.22 0 0 1-.858.352H7.274a1.22 1.22 0 0 1-.858-.352 1.172 1.172 0 0 1-.354-.835l.01-10.875c0-.327.134-.623.351-.838.218-.216.519-.35.851-.35h4.748c.323 0 .633.126.865.355l1.477 1.457h7.604c.334 0 .637.135.858.353.217.214.353.51.353.835z"/>
    </g>
</svg>
