<svg width="14" height="13" viewBox="0 0 14 13" fill="none" xmlns="http://www.w3.org/2000/svg">
<path d="M1.20448 7.55441C0.346813 4.35357 2.24627 1.06361 5.44712 0.205942C8.64796 -0.651722 11.9379 1.24774 12.7956 4.44858C13.6533 7.64943 11.7538 10.9394 8.55295 11.7971C5.3521 12.6547 2.06214 10.7553 1.20448 7.55441ZM11.4319 4.81397C10.7761 2.36621 8.26027 0.913719 5.81251 1.5696C3.36475 2.22547 1.91225 4.74126 2.56813 7.18902C3.22401 9.63678 5.73979 11.0893 8.18756 10.4334C10.6353 9.77752 12.0878 7.26173 11.4319 4.81397Z" fill="#CC9933"/>
<path d="M6.33667 6.78944C6.19532 6.66692 6.10847 6.49348 6.09522 6.30703L6.04616 3.60724C6.01697 3.2185 6.30883 2.87923 6.69755 2.85006C7.08627 2.82088 7.42555 3.11273 7.45473 3.50145L7.45482 5.54921L10.053 5.55429C10.4401 5.60055 10.7163 5.9522 10.6698 6.33911C10.6311 6.66061 10.3792 6.91453 10.0581 6.95541L6.80418 6.94952C6.63409 6.95407 6.46818 6.89744 6.33667 6.78944Z" fill="#CC9933"/>
</svg>
