<svg xmlns="http://www.w3.org/2000/svg" width="29" height="29" viewBox="0 0 29 29">
    <g fill="none" fill-rule="evenodd">
        <path d="M0 0h29v29H0z"/>
        <path fill="#FFF" fill-rule="nonzero" d="M22.722 16.46a9.772 9.772 0 0 0 1.747-5.546c0-3.919-2.56-6.632-6.205-6.632a5.99 5.99 0 0 0-1.265.12C15.794 2.233 13.595.907 10.824.907c-4.247 0-7.199 3.165-7.199 7.687 0 3.949 2.38 8.32 5.723 9.314l-.813 1.296a1.478 1.478 0 0 0-.03 1.538c.25.484.75.787 1.295.783h.361v1.086c0 .695.223.914.714 1.406a2.62 2.62 0 0 0 1.853.768c.782 0 1.319.262 1.319 1.044v.814a.603.603 0 1 0 1.205 0v-.814c0-.695-.276-1.362-.768-1.854-.491-.492-1.061-.396-1.756-.396-.782 0-1.362-.186-1.362-.968v-1.086h.482a1.536 1.536 0 0 0 1.325-.783 1.478 1.478 0 0 0-.06-1.538l-.813-1.296a6.263 6.263 0 0 0 1.897-.964 5.904 5.904 0 0 0 2.59 1.899l-.812 1.296a1.478 1.478 0 0 0-.06 1.537c.269.48.775.779 1.325.784h.361v.21c0 1.45.267 2.623 1.714 2.623.77.017.48-.26.48.51v1.689a.603.603 0 1 0 1.205 0v-1.688c.008-.693-.123-.842-.61-1.334-.486-.493-.382-.382-1.075-.382-.781 0-.509-.635-.509-1.417v-.211h.482a1.536 1.536 0 0 0 1.325-.784c.25-.488.227-1.07-.06-1.537l-.813-1.296a6.326 6.326 0 0 0 2.982-2.382zM4.83 8.593c0-3.828 2.47-6.481 5.994-6.481 3.524 0 6.024 2.653 6.024 6.48 0 4.372-2.861 8.35-6.024 8.35S4.83 12.965 4.83 8.593zm7.29 11.274a.332.332 0 0 1 0 .301.392.392 0 0 1-.272.15H9.8a.301.301 0 0 1-.241-.15.271.271 0 0 1 0-.301l1.084-1.749h.362l1.114 1.749zm7.409.904a.452.452 0 0 1 .03.331.392.392 0 0 1-.271.151H17.24a.392.392 0 0 1-.271-.15.332.332 0 0 1 .03-.332l1.054-1.688h.392l1.084 1.688zm-1.265-2.894c-1.145 0-2.26-.603-3.163-1.748 1.807-1.87 2.952-4.793 2.952-7.536a8.838 8.838 0 0 0-.512-3.045l.723-.06c2.952 0 5 2.23 5 5.426 0 3.647-2.38 6.963-5 6.963z"/>
    </g>
</svg>
