<svg xmlns="http://www.w3.org/2000/svg" width="29" height="29" viewBox="0 0 29 29">
    <g fill="none" fill-rule="evenodd">
        <path d="M0 0h29v29H0z"/>
        <g stroke="#FFF" stroke-width="1.25">
            <path d="M17.126 14.465a2.61 2.61 0 1 1-5.22 0 2.61 2.61 0 0 1 5.22 0z"/>
            <path d="M18.102 21.197l2.345.936a.364.364 0 0 0 .392-.08l1.293-1.285a.364.364 0 0 0 .08-.4l-.97-2.294a.364.364 0 0 1 .001-.283l.425-.998a.364.364 0 0 1 .19-.192L24.19 15.6a.364.364 0 0 0 .22-.333l.006-1.824a.364.364 0 0 0-.226-.338l-2.31-.939a.364.364 0 0 1-.199-.196l-.363-.866a.364.364 0 0 1-.003-.275l.932-2.357a.364.364 0 0 0-.08-.391l-1.29-1.29a.364.364 0 0 0-.4-.077l-2.291.976a.364.364 0 0 1-.284 0l-1-.42a.364.364 0 0 1-.192-.192L15.7 4.75a.364.364 0 0 0-.334-.219h-1.824a.364.364 0 0 0-.337.228l-.934 2.321a.364.364 0 0 1-.182.193l-.898.424a.364.364 0 0 1-.292.007l-2.337-.952a.364.364 0 0 0-.392.077L6.868 8.105a.364.364 0 0 0-.082.399l.952 2.301a.364.364 0 0 1-.002.284l-.432.995a.364.364 0 0 1-.192.19l-2.339.985a.364.364 0 0 0-.223.331l-.019 1.824a.364.364 0 0 0 .225.34l2.303.955c.09.037.16.108.197.198l.357.868a.364.364 0 0 1 0 .275l-.948 2.35a.364.364 0 0 0 .078.392l1.28 1.299a.364.364 0 0 0 .4.08l2.298-.96a.364.364 0 0 1 .283.002l.997.429a.364.364 0 0 1 .19.192l.993 2.335c.056.133.187.22.332.221l1.824.014a.364.364 0 0 0 .339-.226l.95-2.315a.363.363 0 0 1 .184-.191l1-.467a.364.364 0 0 1 .289-.008z"/>
        </g>
    </g>
</svg>
