<svg width="8" height="6" viewBox="0 0 8 6" fill="none" xmlns="http://www.w3.org/2000/svg">
<path fill-rule="evenodd" clip-rule="evenodd" d="M2.72725 5.36982C2.49293 5.1355 2.49293 4.75561 2.72725 4.5213L6.12139 1.12721C6.3557 0.892899 6.73561 0.892899 6.96992 1.12721C7.20424 1.36152 7.20424 1.74142 6.96992 1.97573L3.57578 5.36982C3.34147 5.60413 2.96156 5.60413 2.72725 5.36982Z" fill="white"/>
<path fill-rule="evenodd" clip-rule="evenodd" d="M1.03022 3.6728C0.795907 3.43848 0.795907 3.05859 1.03022 2.82427C1.26454 2.58996 1.64444 2.58996 1.87875 2.82427L3.57581 4.52132C3.81013 4.75564 3.81013 5.13554 3.57581 5.36985C3.3415 5.60416 2.9616 5.60416 2.72728 5.36985L1.03022 3.6728Z" fill="white"/>
</svg>
