<svg width="48" height="48" viewBox="0 0 48 48" fill="none" xmlns="http://www.w3.org/2000/svg">
<g id="Group 5">
<rect id="Rectangle Copy 25" width="48" height="48" rx="8" fill="#F4F6FB"/>
<g id="arquivos/file copy">
<path id="Rectangle Copy 4" d="M11.625 10C11.625 9.24061 12.2406 8.625 13 8.625H29.2117C29.5445 8.625 29.866 8.7457 30.1166 8.9647L33.7931 12.178C34.0903 12.4378 34.2616 12.8128 34.2632 13.2076L34.3666 37.9943C34.3698 38.7559 33.7533 39.375 32.9916 39.375H13C12.2406 39.375 11.625 38.7594 11.625 38V10Z" stroke="#7D86A1" stroke-width="1.25"/>
<rect id="Rectangle_Copy_5" x="18" y="24" width="19" height="12" rx="2" fill="#501F99"/>
<path id=".pdf" fill-rule="evenodd" clip-rule="evenodd" d="M32.1816 31.521C32.2139 31.5536 32.2548 31.5699 32.3043 31.5699H32.6241C32.6737 31.5699 32.7146 31.5536 32.7469 31.521C32.7791 31.4884 32.7952 31.447 32.7952 31.3968V28.2355H33.7546C33.8042 28.2355 33.8451 28.2204 33.8773 28.1903C33.9095 28.1602 33.9256 28.1201 33.9256 28.0699V27.829C33.9256 27.7789 33.9095 27.7375 33.8773 27.7048C33.8451 27.6722 33.8042 27.6559 33.7546 27.6559H32.7952V27.3172C32.7952 27.0663 32.8398 26.8806 32.9291 26.7602C33.0183 26.6398 33.177 26.5796 33.405 26.5796H33.8289C33.8785 26.5796 33.9194 26.5645 33.9517 26.5344C33.9839 26.5043 34 26.4642 34 26.414V26.1731C34 26.1229 33.9839 26.0815 33.9517 26.0489C33.9194 26.0163 33.8785 26 33.8289 26H33.3902C32.9439 26 32.6229 26.1116 32.4271 26.3349C32.2312 26.5582 32.1333 26.8731 32.1333 27.2796V27.6559H31.4937C31.4441 27.6559 31.4032 27.6722 31.371 27.7048C31.3388 27.7375 31.3227 27.7789 31.3227 27.829V28.0699C31.3227 28.1201 31.3388 28.1602 31.371 28.1903C31.4032 28.2204 31.4441 28.2355 31.4937 28.2355H32.1333V31.3968C32.1333 31.447 32.1494 31.4884 32.1816 31.521ZM27.5707 31.1333C27.831 31.4746 28.2214 31.6452 28.742 31.6452C29.2775 31.6452 29.6865 31.4545 29.9691 31.0731V31.3968C29.9691 31.447 29.984 31.4884 30.0137 31.521C30.0435 31.5536 30.0831 31.5699 30.1327 31.5699H30.4525C30.5021 31.5699 30.543 31.5536 30.5752 31.521C30.6075 31.4884 30.6236 31.447 30.6236 31.3968V26.3989C30.6236 26.3487 30.6075 26.3073 30.5752 26.2747C30.543 26.2421 30.5021 26.2258 30.4525 26.2258H30.1178C30.0683 26.2258 30.0274 26.2421 29.9951 26.2747C29.9629 26.3073 29.9468 26.3487 29.9468 26.3989V28.1376C29.6592 27.7663 29.2576 27.5806 28.742 27.5806C28.2264 27.5806 27.8371 27.7525 27.5744 28.0962C27.3116 28.44 27.1703 28.8702 27.1505 29.3871L27.143 29.6129L27.1505 29.8387C27.1703 30.3606 27.3104 30.7921 27.5707 31.1333ZM22.9671 32.9548C22.9993 32.9849 23.0402 33 23.0898 33H23.4245C23.4741 33 23.515 32.9837 23.5472 32.9511C23.5794 32.9185 23.5955 32.8771 23.5955 32.8269V31.0731C23.8682 31.4545 24.2698 31.6452 24.8003 31.6452C25.3209 31.6452 25.7114 31.4771 25.9717 31.1409C26.232 30.8047 26.3696 30.3806 26.3844 29.8688C26.3894 29.8136 26.3919 29.7283 26.3919 29.6129C26.3919 29.4975 26.3894 29.4122 26.3844 29.357C26.3696 28.8401 26.232 28.4149 25.9717 28.0812C25.7114 27.7475 25.3209 27.5806 24.8003 27.5806C24.2698 27.5806 23.8608 27.7738 23.5732 28.1602V27.829C23.5732 27.7738 23.5584 27.7312 23.5286 27.7011C23.4989 27.671 23.4567 27.6559 23.4022 27.6559H23.0898C23.0402 27.6559 22.9993 27.671 22.9671 27.7011C22.9349 27.7312 22.9188 27.7738 22.9188 27.829V32.8269C22.9188 32.8821 22.9349 32.9247 22.9671 32.9548ZM21.0483 31.521C21.0806 31.5536 21.1215 31.5699 21.1711 31.5699H21.6842C21.7338 31.5699 21.7747 31.5536 21.8069 31.521C21.8391 31.4884 21.8553 31.447 21.8553 31.3968V30.8774C21.8553 30.8272 21.8391 30.7846 21.8069 30.7495C21.7747 30.7143 21.7338 30.6968 21.6842 30.6968H21.1711C21.1215 30.6968 21.0806 30.7143 21.0483 30.7495C21.0161 30.7846 21 30.8272 21 30.8774V31.3968C21 31.447 21.0161 31.4884 21.0483 31.521ZM24.659 31.0581C25.016 31.0581 25.2763 30.9452 25.4399 30.7194C25.6035 30.4935 25.6928 30.1975 25.7077 29.8312C25.7126 29.781 25.7151 29.7082 25.7151 29.6129C25.7151 28.6495 25.3631 28.1677 24.659 28.1677C24.312 28.1677 24.0504 28.2844 23.8744 28.5177C23.6984 28.7511 23.6055 29.0258 23.5955 29.3419C23.5906 29.3971 23.5881 29.495 23.5881 29.6355C23.5881 29.776 23.5906 29.8738 23.5955 29.929C23.6055 30.2351 23.7009 30.4998 23.8819 30.7231C24.0628 30.9464 24.3219 31.0581 24.659 31.0581ZM28.8833 31.0581C29.2304 31.0581 29.4907 30.9414 29.6642 30.7081C29.8377 30.4747 29.9319 30.1975 29.9468 29.8763C29.9518 29.8211 29.9542 29.7258 29.9542 29.5903C29.9542 29.4498 29.9518 29.352 29.9468 29.2968C29.9369 28.9907 29.8414 28.726 29.6605 28.5027C29.4795 28.2794 29.2204 28.1677 28.8833 28.1677C28.5263 28.1677 28.266 28.2806 28.1024 28.5065C27.9388 28.7323 27.8495 29.0283 27.8347 29.3946L27.8272 29.6129C27.8272 30.5763 28.1792 31.0581 28.8833 31.0581Z" fill="white"/>
</g>
</g>
</svg>
