<svg width="32" height="32" viewBox="0 0 32 32" fill="none" xmlns="http://www.w3.org/2000/svg">
<path d="M21.5 27.5H7.5V4.5H19M19 4.5L24 10M19 4.5V10H24M24 10V13M10.5 13.5H21.5M10.5 18.5H17M19 18.5H22M10.5 22.5H17M19 22.5H22" stroke="white"/>
<path d="M26.3826 29C26.2906 29 26.217 28.9711 26.1617 28.9133C26.1065 28.8556 26.0789 28.7785 26.0789 28.6822V27.6711C25.453 27.623 24.9099 27.4737 24.4497 27.2233C23.9895 26.973 23.6351 26.6648 23.3866 26.2989C23.1473 25.9233 23.0184 25.5237 23 25.1C23 25.023 23.0276 24.9556 23.0828 24.8978C23.1381 24.84 23.2071 24.8111 23.2899 24.8111H23.5661C23.7318 24.8111 23.833 24.9074 23.8698 25.1C23.9343 25.5622 24.1874 25.9667 24.6292 26.3133C25.071 26.66 25.7061 26.8333 26.5345 26.8333C27.4089 26.8333 28.0579 26.6696 28.4813 26.3422C28.9139 26.0052 29.1302 25.5381 29.1302 24.9411C29.1302 24.5752 29.0243 24.2767 28.8126 24.0456C28.6101 23.8048 28.311 23.5978 27.9152 23.4244C27.5194 23.2415 26.9211 23.0152 26.1203 22.7456C25.4116 22.5048 24.8547 22.2689 24.4497 22.0378C24.0539 21.8067 23.7594 21.5226 23.5661 21.1856C23.3728 20.8485 23.2761 20.42 23.2761 19.9C23.2761 19.197 23.5201 18.6096 24.0079 18.1378C24.5049 17.6563 25.1953 17.3819 26.0789 17.3144V16.3178C26.0789 16.2215 26.1065 16.1444 26.1617 16.0867C26.217 16.0289 26.2906 16 26.3826 16H26.645C26.737 16 26.8107 16.0289 26.8659 16.0867C26.9211 16.1444 26.9487 16.2215 26.9487 16.3178V17.3289C27.5286 17.3867 28.0256 17.5456 28.4398 17.8056C28.854 18.0656 29.167 18.3785 29.3787 18.7444C29.5904 19.1007 29.7055 19.4619 29.7239 19.8278C29.7239 19.9048 29.6963 19.9722 29.641 20.03C29.595 20.0878 29.526 20.1167 29.4339 20.1167H29.1578C29.0934 20.1167 29.0289 20.0974 28.9645 20.0589C28.9001 20.0107 28.8632 19.9337 28.854 19.8278C28.7988 19.3463 28.5503 18.9515 28.1085 18.6433C27.6759 18.3256 27.1282 18.1667 26.4655 18.1667C25.7567 18.1667 25.1907 18.3111 24.7673 18.6C24.3531 18.8889 24.146 19.3222 24.146 19.9C24.146 20.2756 24.238 20.5885 24.4221 20.8389C24.6154 21.0796 24.9007 21.2915 25.2781 21.4744C25.6555 21.6478 26.2124 21.8596 26.9487 22.11C27.7035 22.3604 28.2926 22.6011 28.716 22.8322C29.1394 23.0633 29.4569 23.3426 29.6686 23.67C29.8895 23.9974 30 24.4211 30 24.9411C30 25.75 29.7285 26.3952 29.1854 26.8767C28.6515 27.3485 27.906 27.6181 26.9487 27.6856V28.6822C26.9487 28.7785 26.9211 28.8556 26.8659 28.9133C26.8107 28.9711 26.737 29 26.645 29H26.3826Z" fill="white"/>
</svg>
