<svg width="31" height="27" viewBox="0 0 31 27" fill="none" xmlns="http://www.w3.org/2000/svg">
<path fill-rule="evenodd" clip-rule="evenodd" d="M10.2 19.4C15.5019 19.4 19.8 15.1019 19.8 9.8C19.8 4.49806 15.5019 0.199997 10.2 0.199997C4.89804 0.199997 0.599976 4.49806 0.599976 9.8C0.599976 15.1019 4.89804 19.4 10.2 19.4Z" fill="#FFC61B"/>
<path fill-rule="evenodd" clip-rule="evenodd" d="M10.2 17.9231C14.6862 17.9231 18.3231 14.2863 18.3231 9.8C18.3231 5.31375 14.6862 1.67693 10.2 1.67693C5.71373 1.67693 2.0769 5.31375 2.0769 9.8C2.0769 14.2863 5.71373 17.9231 10.2 17.9231Z" fill="#CC9933"/>
<path fill-rule="evenodd" clip-rule="evenodd" d="M10.1999 17.1846C14.2783 17.1846 17.5845 13.8784 17.5845 9.79999C17.5845 5.72158 14.2783 2.41537 10.1999 2.41537C6.12151 2.41537 2.81531 5.72158 2.81531 9.79999C2.81531 13.8784 6.12151 17.1846 10.1999 17.1846Z" fill="#FFC61B"/>
<path d="M10.0459 5.0737C10.1167 4.92617 10.1924 4.78735 10.2682 4.66092C10.3142 4.58427 10.3506 4.52798 10.3725 4.4959C10.4524 4.3794 10.6117 4.34958 10.7284 4.4293C10.8451 4.50902 10.875 4.66809 10.7951 4.78459C10.7916 4.78971 10.7839 4.80128 10.7726 4.81878C10.7531 4.84896 10.7312 4.88406 10.7075 4.92357C10.6394 5.03713 10.5712 5.16225 10.5076 5.29463C10.4048 5.5088 10.3254 5.71892 10.2773 5.91606C12.6651 5.97304 13.5948 6.52936 14.0554 7.83372C14.2518 8.39003 14.1685 8.88963 13.9105 9.30298C13.8504 9.39925 13.7895 9.47764 13.7348 9.53784C13.7355 9.54457 13.7359 9.55138 13.7361 9.55827C13.7361 9.56098 13.7361 9.56098 13.7362 9.56938C13.7369 9.63102 13.7356 9.71817 13.7308 9.82715C13.7235 9.99124 13.7096 10.1697 13.6876 10.3587C13.6265 10.8823 13.5136 11.4032 13.3353 11.8924C12.8587 13.1996 11.9986 14.07 10.6788 14.2625C10.6769 14.2671 10.675 14.2721 10.673 14.2772C10.6644 14.2992 10.6553 14.3243 10.6429 14.3597C10.644 14.3566 10.6166 14.4348 10.6085 14.4577C10.5632 14.5848 10.5273 14.6694 10.4808 14.7457C10.3953 14.8857 10.282 14.9777 10.1198 14.9777C9.95848 14.9777 9.84611 14.8866 9.75944 14.7473C9.71246 14.6717 9.67588 14.5884 9.62805 14.4607C9.62017 14.4396 9.59466 14.3704 9.59096 14.3605C9.57774 14.325 9.56776 14.2991 9.55852 14.2768C9.55621 14.2712 9.55398 14.266 9.55184 14.261C8.23836 14.0648 7.39243 13.1919 6.93558 11.8837C6.76938 11.4079 6.66508 10.9015 6.61006 10.3907C6.57919 10.1042 6.56736 9.85482 6.56712 9.65975C6.49687 9.58626 6.41601 9.48822 6.3356 9.36742C6.03149 8.9106 5.91637 8.38728 6.11182 7.83372C6.55699 6.57276 7.84891 5.98589 9.75395 5.91251C9.80708 5.64095 9.90911 5.35858 10.0459 5.0737Z" fill="#CC9933"/>
<path fill-rule="evenodd" clip-rule="evenodd" d="M19.8 25C25.1019 25 29.4 20.7019 29.4 15.4C29.4 10.0981 25.1019 5.8 19.8 5.8C14.498 5.8 10.2 10.0981 10.2 15.4C10.2 20.7019 14.498 25 19.8 25Z" fill="#FFC61B" stroke="white"/>
<path fill-rule="evenodd" clip-rule="evenodd" d="M19.7998 23.5231C24.2861 23.5231 27.9229 19.8863 27.9229 15.4C27.9229 10.9138 24.2861 7.27693 19.7998 7.27693C15.3136 7.27693 11.6768 10.9138 11.6768 15.4C11.6768 19.8863 15.3136 23.5231 19.7998 23.5231Z" fill="#CC9933"/>
<path fill-rule="evenodd" clip-rule="evenodd" d="M19.7999 22.7846C23.8783 22.7846 27.1845 19.4784 27.1845 15.4C27.1845 11.3216 23.8783 8.01538 19.7999 8.01538C15.7215 8.01538 12.4153 11.3216 12.4153 15.4C12.4153 19.4784 15.7215 22.7846 19.7999 22.7846Z" fill="#FFC61B"/>
<path d="M19.6457 10.6737C19.7165 10.5262 19.7922 10.3874 19.8681 10.2609C19.9141 10.1843 19.9504 10.128 19.9724 10.0959C20.0523 9.9794 20.2116 9.94958 20.3283 10.0293C20.445 10.109 20.4749 10.2681 20.395 10.3846C20.3915 10.3897 20.3838 10.4013 20.3725 10.4188C20.353 10.449 20.3311 10.4841 20.3074 10.5236C20.2393 10.6371 20.171 10.7623 20.1075 10.8946C20.0047 11.1088 19.9253 11.3189 19.8772 11.5161C22.265 11.573 23.1947 12.1294 23.6553 13.4337C23.8517 13.99 23.7684 14.4896 23.5103 14.903C23.4502 14.9993 23.3894 15.0776 23.3347 15.1378C23.3354 15.1446 23.3358 15.1514 23.3359 15.1583C23.336 15.161 23.336 15.161 23.3361 15.1694C23.3367 15.231 23.3354 15.3182 23.3306 15.4272C23.3234 15.5912 23.3095 15.7697 23.2874 15.9588C23.2264 16.4823 23.1135 17.0032 22.9351 17.4924C22.4586 18.7996 21.5984 19.67 20.2787 19.8625C20.2768 19.8672 20.2748 19.8721 20.2728 19.8773C20.2643 19.8992 20.2552 19.9243 20.2427 19.9597C20.2438 19.9566 20.2165 20.0348 20.2083 20.0577C20.163 20.1848 20.1272 20.2694 20.0806 20.3457C19.9952 20.4857 19.8819 20.5777 19.7196 20.5777C19.5583 20.5777 19.446 20.4866 19.3593 20.3473C19.3123 20.2717 19.2757 20.1884 19.2279 20.0607C19.22 20.0396 19.1945 19.9704 19.1908 19.9605C19.1776 19.925 19.1676 19.8991 19.1584 19.8768C19.1561 19.8713 19.1538 19.866 19.1517 19.861C17.8382 19.6648 16.9923 18.7919 16.5354 17.4837C16.3692 17.0079 16.2649 16.5015 16.2099 15.9907C16.179 15.7042 16.1672 15.4548 16.167 15.2598C16.0967 15.1863 16.0159 15.0882 15.9355 14.9674C15.6313 14.5106 15.5162 13.9873 15.7117 13.4337C16.1568 12.1728 17.4488 11.5859 19.3538 11.5125C19.4069 11.241 19.509 10.9586 19.6457 10.6737Z" fill="#CC9933"/>
</svg>
