<svg width="165" height="165" viewBox="0 0 165 165" fill="none" xmlns="http://www.w3.org/2000/svg">
<path fill-rule="evenodd" clip-rule="evenodd" d="M14.7176 82.5C15.469 83.7985 16.4651 85.4532 17.6991 87.3639C20.8686 92.2715 25.5624 98.7978 31.6562 105.298C43.9692 118.432 61.1841 130.625 82.5 130.625C103.816 130.625 121.031 118.432 133.344 105.298C139.438 98.7978 144.131 92.2715 147.301 87.3639C148.535 85.4532 149.531 83.7985 150.282 82.5C149.531 81.2015 148.535 79.5468 147.301 77.6361C144.131 72.7285 139.438 66.2022 133.344 59.7021C121.031 46.5682 103.816 34.375 82.5 34.375C61.1841 34.375 43.9692 46.5682 31.6562 59.7021C25.5624 66.2022 20.8686 72.7285 17.6991 77.6361C16.4651 79.5468 15.469 81.2015 14.7176 82.5ZM158.125 82.5C164.274 79.4254 164.273 79.4231 164.272 79.4206L164.261 79.3985L164.237 79.3515L164.159 79.1988C164.093 79.0713 164.001 78.8928 163.881 78.6668C163.642 78.2148 163.295 77.5722 162.841 76.7662C161.935 75.155 160.601 72.8854 158.851 70.1764C155.361 64.7715 150.172 57.5478 143.375 50.2979C129.907 35.9318 109.309 20.625 82.5 20.625C55.6909 20.625 35.0933 35.9318 21.6251 50.2979C14.8282 57.5478 9.6392 64.7715 6.14856 70.1764C4.39897 72.8854 3.06482 75.155 2.15855 76.7662C1.70516 77.5722 1.35809 78.2148 1.11893 78.6668C0.999327 78.8928 0.906642 79.0713 0.841073 79.1988L0.763056 79.3515L0.73933 79.3985L0.731294 79.4145C0.730031 79.417 0.725813 79.4254 6.875 82.5L0.725813 79.4254C-0.241938 81.3609 -0.241938 83.6391 0.725813 85.5746L6.875 82.5C0.725813 85.5746 0.72455 85.5721 0.725813 85.5746L0.73933 85.6015L0.763056 85.6485L0.841073 85.8012C0.906642 85.9287 0.999327 86.1072 1.11893 86.3332C1.35809 86.7852 1.70516 87.4278 2.15855 88.2338C3.06482 89.845 4.39897 92.1146 6.14856 94.8236C9.6392 100.228 14.8282 107.452 21.6251 114.702C35.0933 129.068 55.6909 144.375 82.5 144.375C109.309 144.375 129.907 129.068 143.375 114.702C150.172 107.452 155.361 100.228 158.851 94.8236C160.601 92.1146 161.935 89.845 162.841 88.2338C163.295 87.4278 163.642 86.7852 163.881 86.3332C164.001 86.1072 164.093 85.9287 164.159 85.8012L164.237 85.6485L164.261 85.6015L164.269 85.5855C164.27 85.583 164.274 85.5746 158.125 82.5ZM158.125 82.5L164.274 85.5746C165.242 83.6391 165.24 81.3561 164.272 79.4206L158.125 82.5Z" fill="black"/>
<path fill-rule="evenodd" clip-rule="evenodd" d="M82.5 68.75C74.9061 68.75 68.75 74.9061 68.75 82.5C68.75 90.0939 74.9061 96.25 82.5 96.25C90.0939 96.25 96.25 90.0939 96.25 82.5C96.25 74.9061 90.0939 68.75 82.5 68.75ZM55 82.5C55 67.3122 67.3122 55 82.5 55C97.6878 55 110 67.3122 110 82.5C110 97.6878 97.6878 110 82.5 110C67.3122 110 55 97.6878 55 82.5Z" fill="black"/>
</svg>
