<svg width="23" height="23" viewBox="0 0 23 23" fill="none" xmlns="http://www.w3.org/2000/svg">
<path d="M11.6875 22C17.3829 22 22 17.3829 22 11.6875C22 5.99206 17.3829 1.375 11.6875 1.375C5.99206 1.375 1.375 5.99206 1.375 11.6875C1.375 17.3829 5.99206 22 11.6875 22Z" stroke="white" stroke-width="1.25"/>
<path d="M11.6597 10.8556C10.4696 10.8556 9.46389 10.1851 9.46389 9.39167C9.46389 8.59824 10.4696 7.92778 11.6597 7.92778C12.3331 7.92778 12.9567 8.13858 13.3695 8.50455C13.6711 8.77244 14.1322 8.74756 14.403 8.44307C14.6724 8.14151 14.6446 7.67892 14.3416 7.40956C13.8292 6.95429 13.1412 6.64687 12.3917 6.52537V5.73194C12.3917 5.32791 12.0638 5 11.6597 5C11.2557 5 10.9278 5.32791 10.9278 5.73194V6.52244C9.25894 6.79473 8 7.97755 8 9.39167C8 11.0063 9.64248 12.3194 11.6597 12.3194C12.8499 12.3194 13.8556 12.9899 13.8556 13.7833C13.8556 14.5768 12.8499 15.2472 11.6597 15.2472C10.9863 15.2472 10.3627 15.0364 9.9499 14.6704C9.64834 14.4011 9.18575 14.4274 8.91639 14.7319C8.64704 15.0335 8.67485 15.4961 8.97788 15.7654C9.49024 16.2222 10.1783 16.5281 10.9278 16.6511V17.4431C10.9278 17.8471 11.2557 18.175 11.6597 18.175C12.0638 18.175 12.3917 17.8471 12.3917 17.4431V16.6526C14.0605 16.3803 15.3194 15.1974 15.3194 13.7833C15.3194 12.1687 13.677 10.8556 11.6597 10.8556Z" fill="white"/>
</svg>
