<svg width="24" height="17" viewBox="0 0 24 17" fill="none" xmlns="http://www.w3.org/2000/svg">
<path fill-rule="evenodd" clip-rule="evenodd" d="M0 8.18182C1.88727 3.39273 6.54545 0 12 0C17.4545 0 22.1127 3.39273 24 8.18182C22.1127 12.9709 17.4545 16.3636 12 16.3636C6.54545 16.3636 1.88727 12.9709 0 8.18182ZM21.6217 8.18182C19.8217 4.50545 16.1344 2.18182 11.9999 2.18182C7.86531 2.18182 4.17804 4.50545 2.37804 8.18182C4.17804 11.8582 7.86531 14.1818 11.9999 14.1818C16.1344 14.1818 19.8217 11.8582 21.6217 8.18182ZM11.9999 5.45455C13.5053 5.45455 14.7271 6.67636 14.7271 8.18182C14.7271 9.68727 13.5053 10.9091 11.9999 10.9091C10.4944 10.9091 9.27258 9.68727 9.27258 8.18182C9.27258 6.67636 10.4944 5.45455 11.9999 5.45455ZM7.09097 8.18182C7.09097 5.47637 9.29461 3.27273 12.0001 3.27273C14.7055 3.27273 16.9092 5.47637 16.9092 8.18182C16.9092 10.8873 14.7055 13.0909 12.0001 13.0909C9.29461 13.0909 7.09097 10.8873 7.09097 8.18182Z" fill="#7D86A1"/>
</svg>
