<svg width="22" height="22" viewBox="0 0 22 22" fill="none" xmlns="http://www.w3.org/2000/svg">
<rect x="1" y="1" width="20" height="20" rx="4.8" stroke="#7D86A1" stroke-width="1.2" stroke-linecap="round" stroke-linejoin="round"/>
<path fill-rule="evenodd" clip-rule="evenodd" d="M14.9566 10.4133C15.2097 12.1202 14.3396 13.797 12.7983 14.5728C11.2569 15.3486 9.3918 15.0485 8.17164 13.8284C6.95147 12.6082 6.65135 10.7431 7.42715 9.20174C8.20295 7.6604 9.87977 6.79034 11.5867 7.04345C13.3296 7.3019 14.6981 8.67041 14.9566 10.4133Z" stroke="#7D86A1" stroke-width="1.2" stroke-linecap="round" stroke-linejoin="round"/>
<path d="M16.5 6C17.3284 6 18 5.32843 18 4.5C18 3.67157 17.3284 3 16.5 3C15.6716 3 15 3.67157 15 4.5C15 5.32843 15.6716 6 16.5 6Z" fill="#7D86A1" stroke="#F5F7FA" stroke-width="0.5"/>
</svg>
