<svg width="51" height="51" viewBox="0 0 51 51" fill="none" xmlns="http://www.w3.org/2000/svg">
<path d="M25.5 0C11.4241 0 0 11.4241 0 25.5C0 39.5759 11.4241 51 25.5 51C39.5759 51 51 39.5759 51 25.5C51 11.4241 39.5759 0 25.5 0ZM25.5 1.2439C38.9036 1.2439 49.7561 12.0963 49.7561 25.5C49.7561 38.9037 38.9036 49.7561 25.5 49.7561C12.0964 49.7561 1.2439 38.9037 1.2439 25.5C1.2439 12.0963 12.0964 1.2439 25.5 1.2439ZM16.4817 17.4146C15.2795 17.4146 14.3049 18.3892 14.3049 19.5915C14.3049 20.7937 15.2795 21.7683 16.4817 21.7683C17.6839 21.7683 18.6585 20.7937 18.6585 19.5915C18.6585 18.3892 17.6839 17.4146 16.4817 17.4146ZM34.5183 17.4146C33.3161 17.4146 32.3415 18.3892 32.3415 19.5915C32.3415 20.7937 33.3161 21.7683 34.5183 21.7683C35.7205 21.7683 36.6951 20.7937 36.6951 19.5915C36.6951 18.3892 35.7205 17.4146 34.5183 17.4146ZM25.5 34.2073C21.5139 34.2073 17.9536 35.6873 15.1406 38.0751C15.0781 38.1287 15.0267 38.1941 14.9895 38.2675C14.9522 38.341 14.9298 38.421 14.9235 38.5032C14.9171 38.5853 14.9271 38.6678 14.9527 38.7461C14.9782 38.8244 15.019 38.8969 15.0726 38.9594C15.1262 39.0219 15.1916 39.0733 15.265 39.1106C15.3385 39.1478 15.4186 39.1703 15.5007 39.1766C15.5828 39.1829 15.6654 39.173 15.7436 39.1474C15.8219 39.1218 15.8944 39.081 15.9569 39.0274C18.5718 36.8078 21.823 35.4512 25.5 35.4512C29.177 35.4512 32.4282 36.8078 35.0431 39.0274C35.1056 39.081 35.1781 39.1218 35.2564 39.1474C35.3346 39.173 35.4172 39.1829 35.4993 39.1766C35.5814 39.1703 35.6615 39.1478 35.735 39.1106C35.8084 39.0733 35.8738 39.0219 35.9274 38.9594C35.981 38.8969 36.0218 38.8244 36.0473 38.7461C36.0729 38.6678 36.0829 38.5853 36.0765 38.5032C36.0702 38.421 36.0478 38.341 36.0105 38.2675C35.9733 38.1941 35.9219 38.1287 35.8594 38.0751C33.0464 35.6873 29.4861 34.2073 25.5 34.2073Z" fill="#D5D6D8"/>
</svg>
