<svg width="21" height="21" viewBox="0 0 21 21" fill="none" xmlns="http://www.w3.org/2000/svg">
<path d="M10.5 20.1C15.8019 20.1 20.1 15.8019 20.1 10.5C20.1 5.19807 15.8019 0.9 10.5 0.9C5.19807 0.9 0.9 5.19807 0.9 10.5C0.9 15.8019 5.19807 20.1 10.5 20.1Z" stroke="white" stroke-width="1.2"/>
<path d="M10.4555 5.82058L10.0949 5.64748C10.1725 5.48578 10.2554 5.3339 10.3383 5.19559L10.6814 5.40135L10.3383 5.19559C10.3879 5.11295 10.4293 5.04862 10.4574 5.00761C10.6634 4.70708 11.0738 4.63051 11.3744 4.83582C11.6753 5.0414 11.7527 5.45214 11.5465 5.75306L10.4555 5.82058ZM10.4555 5.82058L10.0949 5.64748C9.99368 5.85836 9.90727 6.07325 9.84275 6.28885M10.4555 5.82058L9.84275 6.28885M11.5465 5.7531C11.5464 5.75324 11.546 5.75378 11.5453 5.75479L11.5418 5.7601L11.5296 5.77871C11.5124 5.80538 11.4925 5.83726 11.4705 5.87387L11.1275 5.66811L11.4705 5.87387C11.4073 5.9793 11.3439 6.0955 11.2851 6.21806C11.272 6.24534 11.2594 6.2724 11.2473 6.29919C12.2084 6.3589 12.9535 6.51822 13.5292 6.82075C14.2346 7.19145 14.6451 7.75477 14.9049 8.49053L14.9049 8.49056C15.1461 9.17371 15.0444 9.80779 14.7198 10.3278C14.6813 10.3895 14.642 10.446 14.603 10.4973C14.6021 10.5472 14.6004 10.6037 14.5976 10.666C14.5898 10.8422 14.575 11.033 14.5515 11.2345C14.4865 11.7916 14.3657 12.3518 14.1721 12.8828C13.6795 14.2343 12.781 15.2167 11.3962 15.5063C11.3501 15.6339 11.3042 15.7447 11.2387 15.852C11.1095 16.0638 10.8843 16.2793 10.5306 16.2793C10.1781 16.2793 9.9546 16.065 9.82495 15.8565C9.75761 15.7482 9.71014 15.6367 9.6605 15.5049C8.27805 15.2122 7.39232 14.2242 6.91901 12.8689C6.73847 12.352 6.62689 11.8071 6.56833 11.2635C6.54301 11.0285 6.52957 10.8154 6.52464 10.6324C6.46872 10.565 6.41112 10.4884 6.35431 10.403C5.98923 9.85463 5.83494 9.19265 6.08282 8.49056L11.5465 5.7531ZM11.5465 5.7531C11.5465 5.7531 11.5465 5.7531 11.5465 5.75309L11.5465 5.7531ZM9.84275 6.28885C8.00796 6.41486 6.59288 7.0458 6.08282 8.49056L9.84275 6.28885Z" stroke="white" stroke-width="0.8"/>
</svg>
