<svg width="12" height="12" viewBox="0 0 12 12" fill="none" xmlns="http://www.w3.org/2000/svg">
<path d="M5.29411 7.7647C5.10705 7.764 4.92811 7.68916 4.79646 7.55646L3.73765 6.49765C3.462 6.222 3.462 5.77446 3.73765 5.49884C4.0133 5.22321 4.46084 5.22319 4.73646 5.49884L5.33292 6.0953L7.30587 4.4047C7.62952 4.1873 8.06822 4.27376 8.28527 4.59741C8.46562 4.86635 8.44022 5.22316 8.22352 5.46352L5.75292 7.58116C5.62694 7.69554 5.46424 7.76081 5.29411 7.7647Z" fill="#73B53B"/>
<path d="M6 12C2.68624 12 0 9.31376 0 6C0 2.68624 2.68624 0 6 0C9.31376 0 12 2.68624 12 6C12 9.31376 9.31376 12 6 12ZM6 1.41176C3.46589 1.41176 1.41176 3.46589 1.41176 6C1.41176 8.53411 3.46589 10.5882 6 10.5882C8.53411 10.5882 10.5882 8.53411 10.5882 6C10.5882 3.46589 8.53411 1.41176 6 1.41176Z" fill="#73B53B"/>
</svg>
