<svg width="80" height="80" viewBox="0 0 80 80" fill="none" xmlns="http://www.w3.org/2000/svg">
<path d="M40.2052 50.8146L20.9534 31.5254L0.399018 75.0346C0.380305 75.0756 -0.700241 77.7446 0.775471 79.2232C2.25648 80.7071 4.93594 79.6096 4.95668 79.6001L48.3801 59.006L43.076 53.6912" fill="#B3247C"/>
<path d="M32.2255 42.8188C26.0382 50.547 22.7771 60.4065 23.4838 70.8131L48.3804 59.0057C41.9258 52.5381 44.0814 54.6979 32.2255 42.8188Z" fill="#A61F72"/>
<path d="M3.65403 79.9407C3.92335 78.1856 19.4433 46.2327 24.5551 35.1345L20.9532 31.5254L0.398824 75.0346C0.258317 75.3424 -0.676576 78.0037 0.92514 79.3609C1.98604 80.2656 3.49871 79.9407 3.65403 79.9407Z" fill="#B3247C"/>
<path d="M30.1498 17.8591C31.4459 17.8591 32.4966 16.8063 32.4966 15.5077C32.4966 14.209 31.4459 13.1562 30.1498 13.1562C28.8537 13.1562 27.803 14.209 27.803 15.5077C27.803 16.8063 28.8537 17.8591 30.1498 17.8591Z" fill="#C1D659"/>
<path d="M65.9835 27.3439C67.2797 27.3439 68.3304 26.2912 68.3304 24.9925C68.3304 23.6939 67.2797 22.6411 65.9835 22.6411C64.6874 22.6411 63.6367 23.6939 63.6367 24.9925C63.6367 26.2912 64.6874 27.3439 65.9835 27.3439Z" fill="#FFA853"/>
<path d="M48.3802 59.0058L53.4556 56.6414C53.2999 56.4854 23.5629 26.6903 23.3179 26.4448L20.9531 31.525" fill="#FFA853"/>
<path d="M32.2253 42.8188L48.3804 59.0057L53.4558 56.6413C52.9655 56.1501 36.0816 39.2334 35.777 38.9282C34.5104 40.1454 33.3246 41.4457 32.2253 42.8188Z" fill="#F29C47"/>
<path d="M17.7744 38.2534L11.7048 51.1015C14.2979 52.2247 17.4226 51.7267 19.5414 49.6036C22.9309 46.2073 22.0549 40.4645 17.7744 38.2534Z" fill="#FBDBE7"/>
<path d="M17.7744 38.2534C14.7596 44.6353 11.8923 50.705 11.7048 51.1015C13.3658 51.8209 15.2439 51.8715 16.9373 51.2597L21.2152 42.204C20.6115 40.4897 19.3697 39.0775 17.7744 38.2534Z" fill="#B3247C" fill-opacity="0.129207"/>
<path d="M28.9534 62.9085L28.9478 62.9054C26.7198 60.4281 23.9844 60.5831 23.9844 60.5831L23.9848 60.5859C17.3991 60.3209 14.0025 68.5017 18.942 72.9668L30.7875 67.3492C30.7084 65.6835 30.0499 64.1165 28.9534 62.9085Z" fill="#FBDBE7"/>
<path d="M7.7513 59.4712L4.96924 65.3596C6.34015 66.9321 8.71349 66.9715 10.1466 65.5356C12.3448 63.3332 10.8407 59.5699 7.7513 59.4712Z" fill="#FBDBE7"/>
<path d="M29.0951 53.8862C30.7703 53.8862 32.1283 52.5256 32.1283 50.8472C32.1283 49.1687 30.7703 47.8081 29.0951 47.8081C27.42 47.8081 26.062 49.1687 26.062 50.8472C26.062 52.5256 27.42 53.8862 29.0951 53.8862Z" fill="#FBDBE7"/>
<path d="M24.5557 35.134L26.8833 30.1336C26.8559 30.0706 26.8312 30.0065 26.8089 29.942C25.7624 28.8937 26.4693 29.6015 23.3187 26.4448L23.2923 26.5017L20.9541 31.5251L24.5557 35.134Z" fill="#F29C47"/>
<path d="M46.5901 32.6155C46.3746 31.9414 46.7453 31.2199 47.4182 31.0041C49.39 30.3713 54.0139 28.3272 54.3654 23.0263C54.5736 19.8817 55.7239 17.3892 57.784 15.6181C61.5288 12.3989 66.902 12.8246 67.1291 12.8442C67.8327 12.9053 68.3539 13.5264 68.2929 14.2317C68.2321 14.9361 67.6142 15.458 66.9111 15.3983C66.866 15.3946 62.3553 15.0552 59.4383 17.5738C57.9266 18.8789 57.0789 20.7706 56.9179 23.1961C56.5971 28.0344 53.4191 31.7699 48.1982 33.4453C47.5281 33.6606 46.8061 33.2917 46.5901 32.6155Z" fill="#C1D659"/>
<path d="M48.9139 24.1263C49.8312 24.1263 50.5749 23.3812 50.5749 22.4621C50.5749 21.5429 49.8312 20.7979 48.9139 20.7979C47.9966 20.7979 47.2529 21.5429 47.2529 22.4621C47.2529 23.3812 47.9966 24.1263 48.9139 24.1263Z" fill="#ED6B6B"/>
<path d="M40.6356 4.58381C41.5529 4.58381 42.2966 3.83871 42.2966 2.91959C42.2966 2.00047 41.5529 1.25537 40.6356 1.25537C39.7183 1.25537 38.9746 2.00047 38.9746 2.91959C38.9746 3.83871 39.7183 4.58381 40.6356 4.58381Z" fill="#ED6B6B"/>
<path d="M58.0336 48.0929C58.0113 47.3854 58.5657 46.7938 59.272 46.7717L61.8203 46.6913C62.5267 46.6646 63.1167 47.2245 63.1388 47.9321C63.1611 48.6396 62.6067 49.2312 61.9003 49.2534L59.3521 49.3337C58.6526 49.3568 58.0558 48.8054 58.0336 48.0929Z" fill="#6879B5"/>
<path d="M34.9416 11.1008C34.2357 11.0786 33.6813 10.4871 33.7033 9.77959L33.7834 7.22646C33.8057 6.51896 34.3949 5.96052 35.1023 5.98568C35.8084 6.00787 36.3628 6.59943 36.3406 7.30709L36.2605 9.86021C36.2378 10.5816 35.6286 11.1271 34.9416 11.1008Z" fill="#501F99"/>
<path d="M48.1635 13.1007C48.1413 12.3932 48.6956 11.8017 49.4018 11.7793L51.9498 11.699C52.6555 11.6745 53.2464 12.2321 53.2685 12.9398C53.2908 13.6473 52.7364 14.2389 52.0301 14.2611L49.482 14.3414C48.7926 14.3679 48.1859 13.8195 48.1635 13.1007Z" fill="#C1D659"/>
<path d="M78.7878 29.9737C72.4254 28.8478 70.4106 33.0318 68.9397 36.0872C67.4762 39.1264 66.6701 40.8011 62.9156 39.2111C59.4311 37.7359 56.5246 37.5567 54.2757 38.6782C52.4825 39.5726 51.8241 40.9779 51.7547 41.1351C51.3811 41.985 52.0067 42.9339 52.9246 42.9339C53.4161 42.9339 53.8851 42.6484 54.0959 42.1689C54.1104 42.1359 55.6179 38.9047 61.9199 41.5722C67.7363 44.0351 69.6611 40.4878 71.2438 37.2009C72.7211 34.1328 73.8876 31.7092 78.3428 32.4981C79.0389 32.622 79.7021 32.1561 79.825 31.4589C79.9478 30.7618 79.4834 30.097 78.7878 29.9737Z" fill="#F9B732"/>
<path d="M48.4468 0.0199981C47.7511 0.143123 47.2867 0.808123 47.4098 1.50515C48.6682 8.64422 41.2836 7.65687 38.4524 11.5855C37.2692 13.2277 37.2368 15.3128 38.3532 17.9602C40.9369 24.0866 37.9386 25.7081 37.745 25.805C37.6055 25.8659 36.337 26.4506 36.7737 27.4267C37.3915 28.8078 38.7896 28.145 38.7896 28.145C40.235 27.5067 43.8514 24.4123 40.7097 16.9623C39.1231 13.2006 40.6954 12.4406 43.8274 10.9266C46.8767 9.45265 51.0528 7.4339 49.9289 1.05922C49.8062 0.362186 49.1428 -0.102189 48.4468 0.0199981Z" fill="#F9B732"/>
<path d="M56.3057 52.3892C53.5478 49.6259 30.3598 26.3937 27.557 23.5843C26.5304 22.5559 24.866 22.5559 23.8393 23.5843C22.8127 24.6129 22.8127 26.2806 23.8393 27.3093L52.5881 56.1142C53.6147 57.1426 55.279 57.1426 56.3059 56.1142C57.3321 55.0856 57.3321 53.4177 56.3057 52.3892Z" fill="#501F99" fill-opacity="0.772318"/>
<path d="M52.588 56.1138C53.6145 57.1422 55.2788 57.1422 56.3057 56.1138C57.3321 55.0855 57.3321 53.4177 56.3057 52.3888L39.6186 35.6694C38.2059 36.7238 36.8657 37.8701 35.6042 39.0971L52.588 56.1138Z" fill="#501F99" fill-opacity="0.42447"/>
<path d="M23.2913 26.5017C23.5511 27.0975 23.5472 27.0169 26.8113 30.2871L26.8825 30.1338C26.0498 28.2252 27.6504 26.1524 29.7052 26.4806L29.7038 26.478C29.7038 26.478 30.5287 26.5633 29.9466 25.9796L27.557 23.5844C26.4708 22.4963 24.6725 22.5617 23.6763 23.7653C23.048 24.5189 22.8922 25.5896 23.2913 26.5017Z" fill="#501F99" fill-opacity="0.56108"/>
</svg>
